<svg id="Layer_1" data-name="Layer 1" xmlns="http://www.w3.org/2000/svg" viewBox="0 0 500 390"><defs><style>.cls-1,.cls-10{fill:#92e3a9;}.cls-2,.cls-3,.cls-8{fill:#fff;}.cls-2,.cls-3,.cls-7{isolation:isolate;}.cls-2{opacity:0.8;}.cls-3{opacity:0.5;}.cls-4{fill:#b8b8b8;}.cls-12,.cls-13,.cls-14,.cls-5{fill:none;}.cls-10,.cls-11,.cls-12,.cls-14,.cls-5,.cls-8,.cls-9{stroke:#263238;}.cls-5{stroke-miterlimit:10;}.cls-10,.cls-11,.cls-12,.cls-13,.cls-5,.cls-8,.cls-9{stroke-width:1.05px;}.cls-6,.cls-9{fill:#263238;}.cls-7{opacity:0.3;}.cls-10,.cls-11,.cls-12,.cls-13,.cls-14,.cls-8,.cls-9{stroke-linecap:round;stroke-linejoin:round;}.cls-11{fill:#737373;}.cls-13{stroke:#fff;}.cls-14{stroke-width:3.14px;}</style></defs><g id="freepik--background-simple--inject-7"><path class="cls-1" d="M74.62,247.07s25.9,59.06,91.41,78.38S301.48,319,358.64,299.68s87.22-68.82,74.48-119.55S372.23,133.06,327.32,88s-50-63.84-112.27-77.15S84.69,49.94,67.65,124.12,74.62,247.07,74.62,247.07Z"/><path class="cls-2" d="M74.62,247.07s25.9,59.06,91.41,78.38S301.48,319,358.64,299.68s87.22-68.82,74.48-119.55S372.23,133.06,327.32,88s-50-63.84-112.27-77.15S84.69,49.94,67.65,124.12,74.62,247.07,74.62,247.07Z"/></g><g id="freepik--Trees--inject-7"><path class="cls-1" d="M407.35,167.23s23.75,2.35,35.78,17.08c0,0,12.73-17.06,35.57-16.71a46.17,46.17,0,1,0-71.36-.33Z"/><path class="cls-3" d="M407.35,167.23s23.75,2.35,35.78,17.08c0,0,12.73-17.06,35.57-16.71a46.17,46.17,0,1,0-71.36-.33Z"/><polygon class="cls-4" points="442.33 95.23 441.54 249.16 445.55 249.16 442.33 95.23"/><path class="cls-4" d="M443.55,179.82s8-14.43,22.44-18.85c0,0-15.23,3.62-22.8,16Z"/><path class="cls-4" d="M443.55,138.93s8-14.43,22.44-18.85c0,0-15.23,3.61-22.8,16Z"/><path class="cls-4" d="M443.55,159.36s8-14.44,22.44-18.85c0,0-15.23,3.61-22.8,16Z"/><path class="cls-4" d="M442.35,149.35s-7.74-14.43-21.66-18.84c0,0,14.7,3.6,22.05,16Z"/><path class="cls-4" d="M442.35,169.4s-7.74-14.44-21.66-18.84c0,0,14.7,3.6,22.05,16Z"/><path class="cls-1" d="M18.62,167.23s23.75,2.35,35.78,17.08c0,0,12.73-17.06,35.56-16.71a46.16,46.16,0,1,0-71.35-.33Z"/><path class="cls-3" d="M18.62,167.23s23.75,2.35,35.78,17.08c0,0,12.73-17.06,35.56-16.71a46.16,46.16,0,1,0-71.35-.33Z"/><polygon class="cls-4" points="53.62 95.23 52.81 249.16 56.83 249.16 53.62 95.23"/><path class="cls-4" d="M54.83,179.82s8-14.43,22.44-18.85c0,0-15.23,3.62-22.8,16Z"/><path class="cls-4" d="M54.83,138.93s8-14.43,22.44-18.85c0,0-15.23,3.61-22.8,16Z"/><path class="cls-4" d="M54.83,159.36s8-14.44,22.44-18.85c0,0-15.23,3.61-22.8,16Z"/><path class="cls-4" d="M53.63,149.35S45.89,134.92,32,130.51c0,0,14.7,3.6,22.05,16Z"/><path class="cls-4" d="M53.63,169.4S45.89,155,32,150.56c0,0,14.7,3.6,22.05,16Z"/><path class="cls-1" d="M310.84,182.15s19.44,1.92,29.29,14c0,0,10.41-14,29.11-13.68a37.78,37.78,0,1,0-58.41-.25Z"/><path class="cls-3" d="M310.84,182.15s19.44,1.92,29.29,14c0,0,10.41-14,29.11-13.68a37.78,37.78,0,1,0-58.41-.25Z"/><polygon class="cls-4" points="339.49 123.17 338.83 249.16 342.12 249.16 339.49 123.17"/><path class="cls-4" d="M340.47,192.41S347,180.6,358.84,177c0,0-12.43,3-18.65,13.13Z"/><path class="cls-4" d="M340.47,158.94s6.57-11.81,18.37-15.42c0,0-12.43,3-18.65,13.12Z"/><path class="cls-4" d="M340.47,175.68s6.57-11.82,18.37-15.43c0,0-12.43,2.95-18.65,13.13Z"/><path class="cls-4" d="M339.5,167.47s-6.34-11.81-17.73-15.42c0,0,12,2.95,18.05,13.12Z"/><path class="cls-4" d="M339.5,183.87s-6.34-11.81-17.73-15.42c0,0,12,3,18.05,13.13Z"/><path class="cls-1" d="M122.75,182.15s19.44,1.92,29.29,14c0,0,10.36-14,29.11-13.68a37.78,37.78,0,1,0-58.41-.25Z"/><path class="cls-3" d="M122.75,182.15s19.44,1.92,29.29,14c0,0,10.36-14,29.11-13.68a37.78,37.78,0,1,0-58.41-.25Z"/><polygon class="cls-4" points="151.39 123.17 150.74 249.16 154.03 249.16 151.39 123.17"/><path class="cls-4" d="M152.43,192.41S159,180.6,170.8,177c0,0-12.43,3-18.65,13.13Z"/><path class="cls-4" d="M152.43,158.94s6.57-11.81,18.37-15.42c0,0-12.43,3-18.65,13.12Z"/><path class="cls-4" d="M152.43,175.68s6.57-11.82,18.37-15.43c0,0-12.43,2.95-18.65,13.13Z"/><path class="cls-4" d="M151.39,167.47s-6.32-11.81-17.72-15.37c0,0,12,3,18.06,13.12Z"/><path class="cls-4" d="M151.39,183.87s-6.33-11.81-17.73-15.42c0,0,12,3,18.06,13.13Z"/><line class="cls-5" x1="25.77" y1="249.71" x2="472.96" y2="249.71"/></g><g id="freepik--Text--inject-7"><path class="cls-6" d="M185.08,55.44c0-8,4.23-12.59,11.95-12.59s12,4.58,12,12.59V81.49c0,8-4.23,12.59-12,12.59s-11.95-4.58-11.95-12.59ZM193,82c0,3.57,1.57,4.93,4.07,4.93s4.08-1.36,4.08-4.93v-27c0-3.57-1.57-4.93-4.08-4.93S193,51.37,193,54.94Z"/><path class="cls-6" d="M214.93,55.44c0-8,4.21-12.59,11.95-12.59s11.94,4.58,11.94,12.59V81.49c0,8-4.22,12.59-11.94,12.59s-11.95-4.58-11.95-12.59ZM222.79,82c0,3.57,1.58,4.93,4.09,4.93S231,85.56,231,82v-27c0-3.57-1.58-4.93-4.07-4.93s-4.09,1.36-4.09,4.93Z"/><path class="cls-6" d="M268.73,55.8v6.51c0,8-3.87,12.44-11.73,12.44h-3.72V93.56H245.4V43.43H257C264.86,43.43,268.73,47.79,268.73,55.8Zm-15.45-5.18v17H257c2.5,0,3.85-1.14,3.85-4.72V55.35c0-3.59-1.35-4.73-3.85-4.73Z"/><path class="cls-6" d="M284.83,42.85c7.65,0,11.59,4.58,11.59,12.59V57H289V54.94C289,51.37,287.55,50,285,50s-3.94,1.36-3.94,4.93c0,10.3,15.39,12.24,15.39,26.55,0,8-4,12.59-11.73,12.59S273,89.5,273,81.49V78.38h7.44V82c0,3.57,1.58,4.87,4.08,4.87s4.08-1.3,4.08-4.87c0-10.3-15.38-12.24-15.38-26.55C273.24,47.44,277.18,42.85,284.83,42.85Z"/><path class="cls-6" d="M303.51,82.41l-1-18.09V43.43h7.88V64.32l-1,18.09Zm6.72,3.52v7.58h-7.54V85.93Z"/><path class="cls-6" d="M168.1,357.46c3.69,0,5.26,2.18,5.26,5.74V366c0,3.72-1.74,5.67-5.46,5.67h-2.32v9.25H163V357.46Zm-.2,11.87c1.94,0,2.88-.9,2.88-3.11v-3.1c0-2.15-.77-3.23-2.68-3.23h-2.52v9.5Z"/><path class="cls-6" d="M178.4,376.2l-.91,4.74h-2.42l4.5-23.48h3.79l4.5,23.48h-2.62l-.9-4.74Zm.33-2.23H184l-2.65-13.58Z"/><path class="cls-6" d="M200.94,363.13v2h-2.49V363c0-2.07-.84-3.38-2.75-3.38S193,360.88,193,363v12.44c0,2.07.87,3.38,2.74,3.38s2.75-1.27,2.75-3.38v-4.68H196V368.4h4.9v6.91c0,3.56-1.68,5.9-5.3,5.9s-5.27-2.34-5.27-5.9V363.13c0-3.56,1.68-5.9,5.27-5.9S200.94,359.57,200.94,363.13Z"/><path class="cls-6" d="M212.44,367.86v2.34h-5.73v8.36h7v2.38h-9.66V357.46h9.66v2.38h-7v8Z"/><path class="cls-6" d="M225,380.94h-2.34V357.46H226l5.43,17v-17h2.33v23.48H231l-6-19Z"/><path class="cls-6" d="M236.9,363.13c0-3.59,1.77-5.9,5.36-5.9s5.4,2.31,5.4,5.9v12.14c0,3.56-1.78,5.9-5.4,5.9s-5.36-2.34-5.36-5.9Zm2.58,12.28c0,2.14.91,3.38,2.78,3.38s2.78-1.24,2.78-3.38V363c0-2.07-.87-3.38-2.78-3.38s-2.78,1.27-2.78,3.38Z"/><path class="cls-6" d="M254.23,380.94v-21.1h-4.32v-2.38h11.27v2.38h-4.33v21.1Z"/><path class="cls-6" d="M277.55,368.39v2.36h-5.4v10.17h-2.62V357.46h9.32v2.38h-6.7v8.55Z"/><path class="cls-6" d="M281.4,363.13c0-3.59,1.79-5.9,5.37-5.9s5.4,2.31,5.4,5.9v12.14c0,3.56-1.77,5.9-5.4,5.9s-5.37-2.34-5.37-5.9ZM284,375.41c0,2.14.91,3.38,2.78,3.38s2.79-1.24,2.79-3.38V363c0-2.07-.87-3.38-2.79-3.38S284,360.86,284,363Z"/><path class="cls-6" d="M297.81,375.41c0,2.07.84,3.38,2.74,3.38s2.73-1.27,2.73-3.38v-18h2.44v17.81c0,3.56-1.64,5.94-5.26,5.94s-5.23-2.38-5.23-5.94V357.46h2.58Z"/><path class="cls-6" d="M311.29,380.94h-2.38V357.46h3.31l5.43,17v-17H320v23.48H317.3l-6-19Z"/><path class="cls-6" d="M328.86,357.46c3.66,0,5.34,2.22,5.34,5.83v11.85c0,3.58-1.68,5.8-5.34,5.8h-5.45V357.46Zm0,21.1c1.88,0,2.79-1.18,2.79-3.32V363.16c0-2.15-.91-3.32-2.82-3.32H326v18.72Z"/></g><g id="freepik--Characters--inject-7"><path class="cls-7" d="M147.86,299.72c0,3.11-19.1,5.58-42.67,5.58s-42.68-2.49-42.68-5.58,19.11-5.59,42.68-5.59S147.86,296.64,147.86,299.72Z"/><path class="cls-7" d="M237.2,299.72c0,3.11-19.11,5.58-42.68,5.58s-42.67-2.49-42.67-5.58,19.11-5.59,42.67-5.59S237.2,296.64,237.2,299.72Z"/><path class="cls-7" d="M355.54,299.72c0,3.11-19.1,5.58-42.67,5.58s-42.67-2.49-42.67-5.58,19.1-5.59,42.67-5.59S355.54,296.64,355.54,299.72Z"/><path class="cls-7" d="M454.4,299.72c0,3.11-19.11,5.58-42.68,5.58S369,302.81,369,299.72s19.11-5.59,42.67-5.59S454.4,296.64,454.4,299.72Z"/><path class="cls-8" d="M317.49,136.32s-1.76,7.25-1.76,8.48a10.69,10.69,0,0,1-.24,2.25s-3.75,4.48-3.25,5.73a6.05,6.05,0,0,0,2.5,2.23s2,7.26,4,7.73a46.32,46.32,0,0,0,6.22.75l.74,6,10-1.49-2.49-9,1-7.73s1.74-3.23,0-8.46-5.48-5.48-8-5.48C323.3,137.14,320.38,136.8,317.49,136.32Z"/><path class="cls-9" d="M322,132.59s-8.72-.26-8.47,2,9.22,5.18,9.22,5.18-3,2-1.5,4,5,3.74,5,3.74-1,4.24.51,4.49,2.49-2,2.73-2.75,3-.5,3.74,1.49a10.13,10.13,0,0,1,.75,3.25s3-9,3.49-13S326.71,132.59,322,132.59Z"/><path class="cls-8" d="M327.5,152.1s3-6.63,4.81-3.37,1,6.67-.73,7-3.26.72-3.26.72"/><path class="cls-9" d="M315.24,221.31c-.49.57-8.48,17.7-9.47,23.43s-7.48,39.89-7.74,41.38-13.94,4.49-14.95,4.74,1,3,4,3.74,11.47,4.24,13.47,2.24,4.74-13.22,5.48-14.46,14.78-34.3,14.78-34.3,7.19-15.86,8.69-17.37-1.78-8.14-3-10.14S318.73,217.32,315.24,221.31Z"/><path class="cls-9" d="M313.74,221.53s3.5,16.71,5.24,22.69a47.8,47.8,0,0,0,7.25,14c2,2.75,11.72,26.95,11.72,26.95l1.49,3.74s-.49,1.49-3.23,3.48-10.48,5.23-8.48,6,10,.74,13.71.5a13,13,0,0,0,8.47-4c1.5-1.75-2.49-6.74-2.49-7.73s-8.72-31.4-9.22-32.91-3-12.2-3-12.2V229.82s1.25-2.24,1.25-7.25-3.74-6-3.74-6l-20.45,2Z"/><path class="cls-10" d="M312,220.07s.51,4.24,2,4.49,16.95,4.48,23.68-.5c0,0,1.25-3.74.5-4.74s-2.5-.49-11.46-.49S312,218.83,312,220.07Z"/><path class="cls-10" d="M334.93,164.24s-9.23,1.24-13.22,5.18-7.47,11.22-9.21,18-3,31.41-.51,32.65,23.43,2.5,26.95,1-.25-13.22-.25-17.7,4-19.69,3.24-28.16S334.93,164.24,334.93,164.24Z"/><path class="cls-9" d="M301.65,190.14c-.11-10.26-4.3-19-9.86-22.79v-2.08l-15.34.16c-8.63.09-15.54,11.4-15.37,25.18s7.26,24.94,15.9,24.87l15.33-.16v-2.07C297.7,209.24,301.7,200.4,301.65,190.14Z"/><path class="cls-8" d="M308.53,190.07c-.11-10.78-4.27-20-10.11-24v-2.21l-6.57.08c-9.08.09-16.3,11.94-16.15,26.45s7.63,26.21,16.71,26.12l6.57-.08v-2.19C304.69,210.13,308.65,200.81,308.53,190.07Z"/><path class="cls-11" d="M315.12,190c.16,14.51-7.07,26.36-16.14,26.45s-16.58-11.59-16.71-26.1,7.08-26.36,16.15-26.47S315,175.48,315.12,190Z"/><path class="cls-9" d="M311.35,189.55c.07,6.87-3.36,12.49-7.66,12.54s-7.84-5.5-7.91-12.43,3.35-12.44,7.65-12.54S311.28,182.67,311.35,189.55Z"/><path class="cls-9" d="M433.46,241.22A125.46,125.46,0,0,0,434.55,222c-3.37,1.55-23,2.12-24.82,2.16s-21.45-.61-24.82-2.16a126.69,126.69,0,0,0,1,19.27c1.36,8.4,13.3,42,13.57,43.68a37,37,0,0,0,1.35,4.62s-6.78,4.88-9.77,6.78-.81,2.71,2.18,2.71,9.22-.82,11.12-.82c1.68,0,4.6-1.46,5.28-1.81.69.35,3.61,1.81,5.28,1.81,1.9,0,8.14.82,11.13.82s5.18-.82,2.17-2.71-9.77-6.78-9.77-6.78a37.07,37.07,0,0,0,1.36-4.62C420.17,283.24,432.11,249.59,433.46,241.22Z"/><path class="cls-10" d="M405.63,169.19s-10.5,3.43-15.92,6.87-10.86,22.07-10.86,22.8a22.77,22.77,0,0,1-1.26,3.79s-5.43-1.26-6.51,3.26,5.42,10.31,8.86,10.49,4.52-.9,4.52-.9-2.17,4.34-1.27,6.15,8.51,8.5,23.53,8.29,25.9-2.72,27.49-4.88,1.81-6.7,1.81-6.7,5.61-1.45,7.6-5.07,1.63-7.42.54-11.21-6.7-14.81-10.49-21-11.76-9.59-15.54-10.68S408.16,169.19,405.63,169.19Z"/><path class="cls-8" d="M408.81,184.42c1.5-.49,6.22-4.68,8-8.87a20,20,0,0,0,1.5-5l-.23-.08c-3.8-1.08-9.95-1.26-12.44-1.26,0,0-2.2.72-5.1,1.82a18.58,18.58,0,0,0,1.25,6.55C403.45,181.75,407.35,184.93,408.81,184.42Z"/><path class="cls-12" d="M426.06,192.88s4.35,23.16,9.27,25.54"/><path class="cls-12" d="M384.46,215.5s5.43-20.44,5.79-22.43"/><path class="cls-12" d="M433.08,203.35s-3,.67-3,2.85"/><path class="cls-12" d="M382,203.68s3.35,2.17,3,5.52"/><path class="cls-10" d="M404.45,298.21c1.68,0,4.6-1.46,5.28-1.81.69.35,3.61,1.81,5.28,1.81,1.9,0,8.14.82,11.13.82s5.18-.82,2.17-2.71c-2.6-1.65-8.05-5.55-9.44-6.54-3.2,2.92-9.53,2.2-9.53,2.2a35.17,35.17,0,0,1-3.8-.81c-1.9-.55-4.62-1.63-4.62-1.63s-6.78,4.88-9.77,6.78-.81,2.71,2.18,2.71S402.55,298.21,404.45,298.21Z"/><line class="cls-13" x1="409.34" y1="289.58" x2="409.34" y2="242.27"/><polyline class="cls-12" points="409.73 296.35 409.34 291.93 409.34 289.58"/><line class="cls-13" x1="405.54" y1="240.64" x2="413.4" y2="240.64"/><path class="cls-9" d="M395.26,142s-5.64,3.38-4.8,6.34,3.39,3.54,2.83,5.18-2.52,2.69-.29,3.72a18.88,18.88,0,0,0,4,1.28s2.07,7.19,5.63,8.45,9.74.43,14.12-.13a7.31,7.31,0,0,0,6.34-5.37c.42-1.54-1.84.29-3-1.41s.57-6.06,1.83-9.87-2.54-11-7.47-13.4S400.1,135.69,395.26,142Z"/><path class="cls-8" d="M404.73,166.61a38.17,38.17,0,0,0-1.45,7.25c-.19,3.11,2.35,6.52,5.06,6.34s5.06-5.61,5.42-8.29-.9-9.95-.9-9.95-4.14.18-5.79,1.62A10,10,0,0,0,404.73,166.61Z"/><path class="cls-8" d="M401.05,146s.13,4.23,4.37,8.29a26.42,26.42,0,0,0,8.88,5.65,7.76,7.76,0,0,1-.7,2.67,2,2,0,0,1-2,1h-1.42s-2.07,4.86-4.58,5.56-8.67.22-9.52-6-1-11.28-.28-12.56S401.05,146,401.05,146Z"/><path class="cls-8" d="M445.39,200.6a11.52,11.52,0,0,0,1.15-4.15c0-1.88-3.5-4.59-4.14-5.26s-1.29-.6-1.42.34a3.83,3.83,0,0,0,1.21,2.83,3.26,3.26,0,0,1,1.09,1.63c.06.46-1.16,2.75-.55,4.24S445.06,202.15,445.39,200.6Z"/><path class="cls-14" d="M305.05,190s15.25,4.88,24.43,16.28,15.19,9.76,26.59,6,15.74-17.37,31.48-6,19,15.73,32,9.22,20.07-22.25,32-16.83,6.51,33.16,7.59,46.63-.55,47.23,2.17,51.57,30.39,1,30.39,1"/><path class="cls-10" d="M333.62,171.91s-3-5-7.51-3.66c-4.74,1.37-7.18,8.13-8.29,12.35s-1.86,8.78-3.89,12.7c0,0-9-.15-14-1.6a118.43,118.43,0,0,1-11.25-4.15s-1.77-2.47-3-3-4.51-1.44-4.74-.7,3.77,3.21,3.77,3.21-7.46,1-8.21,1.83,5.28,3.18,5.28,3.18,2.24.73,7.72-.58c0,0,20.07,12.75,24.07,14.21s6.22,1.93,8.94-3.34,11.77-18.32,13.21-23.57"/><path class="cls-8" d="M293.91,189.67c-2.93-1.1-5.18-2.08-5.18-2.08s-1.77-2.47-3-3-4.5-1.44-4.74-.69,3.77,3.2,3.77,3.2-7.46,1-8.21,1.83,5.28,3.18,5.28,3.18,2.25.73,7.72-.58l2.81,1.78Z"/><path class="cls-8" d="M371.28,202.51a11.19,11.19,0,0,1-1.15-4.15c0-1.88,3.51-4.58,4.14-5.25s1.28-.6,1.41.34a3.85,3.85,0,0,1-1.21,2.83,3.1,3.1,0,0,0-1.09,1.63c-.06.45,1.16,2.75.55,4.23S371.61,204.05,371.28,202.51Z"/><path class="cls-8" d="M373.69,196.82s-2.89,5.33-1.21,7.25,3.31-4.31,3.62-6S374.76,194.59,373.69,196.82Z"/><path class="cls-8" d="M376.08,198.73s-2.9,5.34-1.22,7.26,3.31-4.31,3.62-6S377.14,196.44,376.08,198.73Z"/><path class="cls-8" d="M378.7,199.18s-2.89,5.34-1.22,7.25,3.31-4.31,3.62-6S379.76,196.94,378.7,199.18Z"/><path class="cls-8" d="M382.05,199.22s-2.69,4.15-1.22,5.71,3.06-3.36,3.37-4.78S383.05,197.36,382.05,199.22Z"/><path class="cls-8" d="M443.46,197s2.89,5.34,1.22,7.26-3.31-4.32-3.62-6S442.4,194.79,443.46,197Z"/><path class="cls-8" d="M441.08,198.89s2.89,5.34,1.21,7.25-3.3-4.32-3.61-6S440,196.66,441.08,198.89Z"/><path class="cls-8" d="M438.44,199.39s2.89,5.33,1.21,7.25-3.31-4.31-3.61-6S437.4,197.15,438.44,199.39Z"/><path class="cls-8" d="M435.1,199.43s2.7,4.2,1.22,5.71-3.05-3.36-3.35-4.78S434.11,197.56,435.1,199.43Z"/><path class="cls-8" d="M78.57,258.47v5.89a18.47,18.47,0,0,0-4.28,7.86c-1.26,4.8-5.18,25.5-4.15,26S80.93,301,84,300.56c3.56-.54,6.6-.36,4.81-2.32s-11.22-7.48-11.22-7.48,10.37-15,12.67-20.51S93,256.15,93,256.15l-13.91-.53Z"/><path class="cls-9" d="M84,300.56c3.56-.54,6.6-.36,4.81-2.32s-11.22-7.48-11.22-7.48l-.35,2.14-6.79-.83c-.49,3.46-.71,6-.35,6.22C71.25,298.78,80.93,301,84,300.56Z"/><path class="cls-8" d="M112.64,261.52l1.6,2.86a10.42,10.42,0,0,0-.53,8.38c1.6,5,5.35,23.37,5.35,24.44s2.31,1.78,4.15,1.78,6.91.35,7.62.35,5.89.9,7.67-.17-2.27-3.21-4.94-4.46-8.56-4.45-8.56-4.45,1.42-14.64,1.42-21.06,1.43-8.56-.53-12.49-14.27,1.8-14.27,1.8Z"/><path class="cls-9" d="M133.51,294.7c-2.68-1.25-8.56-4.45-8.56-4.45l-.72,2.67-5.73,1c.35,1.78.56,3,.56,3.25,0,1,2.31,1.78,4.15,1.78s6.91.35,7.62.35,5.89.9,7.67-.17S136.18,296,133.51,294.7Z"/><path class="cls-8" d="M103,142.78A48.45,48.45,0,0,0,98.25,136c-2.45-2.77-10.15-2.61-13.53,1s-2.31,10.15-1,12,3.84,10.46,3.84,10.46l.61,6.16,14.31,5.07-2.92-10s5.54-1,6-2.76-.92-7.55-.92-7.55,1.84-1.23,1.69-2.31S103,142.78,103,142.78Z"/><path class="cls-9" d="M86.57,149.41s2.44,2.07,3.78-.3,2.35-4.7,2.35-6.71-5-3.68-1.68-5S96.78,139,98.28,136s.13-3.33-7.91-3.33-12.06,4-10.36,9.05a67.84,67.84,0,0,0,5,10.71Z"/><path class="cls-12" d="M103.49,146.33a3.85,3.85,0,1,1-3.85-3.84,3.85,3.85,0,0,1,3.85,3.84Z"/><path class="cls-12" d="M102.93,142.92a3.77,3.77,0,0,1,1.41-.28,3.62,3.62,0,0,1,1.75,6.78"/><line class="cls-12" x1="95.8" y1="146.33" x2="86.57" y2="149.41"/><path class="cls-8" d="M89.22,151.41s-1.85-3.85-3.69-3.11-.92,6.78.92,7.39a4,4,0,0,0,3.54-.92s1.54,3.23,3.38,4.14"/><path class="cls-10" d="M77.12,220.5,76,235.23,72.52,257s8,6.32,15.55,6.32,9.56-1,9.56-1L101.84,240l4.21,23.53s8.29-1.33,13.78-2.68a36,36,0,0,0,10.71-5L119.45,227,117,212.1s-12.43,1.15-19.9,1.54-17.41-1.54-17.41-1.54Z"/><path class="cls-9" d="M85,161.62s17.62,6.14,23.06,12.11c3,3.32,6.37,26,7.58,31.55S119,221.86,119,221.86s-10.75,4.85-19.06,5-24.26-3.64-24.26-3.64,1.9-24.59,1.9-36,.18-18.89,2.07-22.53C79.63,164.73,82.75,161.26,85,161.62Z"/><path class="cls-12" d="M80.37,225s.95,16.08,0,22a45.81,45.81,0,0,1-3.44,11.1"/><path class="cls-12" d="M80.75,232.69a8.76,8.76,0,0,0,5.74-6.51"/><path class="cls-12" d="M73.48,253.94s9.57,8.22,24.5,5.18"/><path class="cls-12" d="M105.63,258.71s15.69-1.72,22.58-6.31"/><path class="cls-9" d="M175.81,154.18l-6.79,5c-5.27,3.85-1.12,9.68-1.12,9.68s-3.77.59-8.81,5.88,2.25,14.39,9.06,15.81,14.77-7,17.15-14.82-.77-19.6-2.35-22S175.81,154.18,175.81,154.18Z"/><path class="cls-9" d="M195.79,153.14s2.62-4,.25-9.93-9.46-8.56-16.37-4.3a12.17,12.17,0,0,0-5.48,13.75c.68,2.72,4.07,6.89,4.79,7s6.92,2.32,11.16.34S195.79,153.14,195.79,153.14Z"/><path class="cls-11" d="M165.29,289.92s4.92,7.66,13.47,9,.86-6.36-.58-7.52S166.45,287.7,165.29,289.92Z"/><path class="cls-11" d="M210.83,291.89s9.4,2.31,8.68,4.35-8.39,1.87-12.86.71-8.69-2.89-8.11-4.77S210.83,291.89,210.83,291.89Z"/><path class="cls-10" d="M184.11,168.37s-12.58,1.85-14.88,6.29.94,28.66.94,28.66-5.37,11.85-5.44,19.48,3.33,21,3.06,24.39-3.71,41.45-3.71,42.49,7.25,3.35,17.71,4.6,30.45-2.48,30.45-2.48-.39-22.49.66-35.9-.45-25.46-3.11-30.46-15.07-23-15.07-23,6-10.9,6.38-15.67-1.56-7.25-6.1-12.73A15.83,15.83,0,0,0,184.11,168.37Z"/><path class="cls-11" d="M194.75,202.42s6-10.9,6.38-15.66S199.57,179.5,195,174c-.22-.27-.44-.51-.67-.76l-.17.16c-4.66,7.61-20.08,20.63-24.67,24.42.35,3.25.65,5.48.65,5.48s-5.37,11.85-5.44,19.48a69.27,69.27,0,0,0,1,10.36c10.89-6.22,25.46-17.86,33.34-24.34C196.65,205.17,194.75,202.42,194.75,202.42Z"/><path class="cls-8" d="M181.79,159.48a76.75,76.75,0,0,1,.57,8.57c-.17,2.12.52,7,4.14,8.5s5.91-.6,5.9-2.74a21.36,21.36,0,0,0-1-5.18l.11-5.85S185.21,158.86,181.79,159.48Z"/><path class="cls-8" d="M178.53,155.68s-2.66-2.34-2.74,1,3,4.5,3.71,4.73a2.3,2.3,0,0,0,1.63-.4s4.83,4.14,8.71,4.41,5.45-1.52,6.36-8.56-6.35-14.18-6.35-14.18S183.63,154.18,178.53,155.68Z"/><path class="cls-8" d="M119.27,221.72a9.17,9.17,0,0,1,.58-3.52c.64-1.41,4.15-2.22,4.92-2.49s1.17,0,1,.73a3.21,3.21,0,0,1-1.88,1.7,2.68,2.68,0,0,0-1.38.84c-.19.33-.07,2.46-1,3.36S119,223,119.27,221.72Z"/><path class="cls-14" d="M198.69,190.56s-12.44-1.63-17.92,7.05-15.73,39.07-34.72,44-24.43-34.19-35.83-33.11c-10.86,1-18.44,0-25,11.94-3.48,6.4-20.89,76.21-29.12,76.92-26.21,2.29-43.08.8-43.08.8"/><path class="cls-9" d="M85.81,162.11s-2.87-1.15-6.71,1.14S65,190.62,65.72,193.3s11.66,7.66,17.79,9.38,17.22,3.84,17.22,3.84,3.44,5.35,4.59,5.54a24.53,24.53,0,0,0,5-.57s2.07,1.72,2.87-.2-.77-4.39-2.49-6.31-9-2.87-9-2.87L82,188.52l8.3-15.31"/><path class="cls-8" d="M105.32,212.05a24.53,24.53,0,0,0,5-.57s2.07,1.72,2.87-.2-.77-4.39-2.49-6.31-9-2.87-9-2.87L82,188.52l3-5.49c-7.37-4.59-12.26-4.24-14.9-3.32-2.65,6.34-4.66,12.35-4.3,13.58.76,2.69,11.66,7.66,17.79,9.38s17.22,3.84,17.22,3.84S104.17,211.86,105.32,212.05Z"/><path class="cls-9" d="M228.59,191c-.84-9-5.19-16.47-10.37-19.43l-.16-1.84L204.52,171c-7.61.71-12.87,11.16-11.74,23.35S201,215.79,208.62,215l13.53-1.25-.18-1.84C226.53,208.12,229.42,200,228.59,191Z"/><path class="cls-8" d="M234.71,190.44c-.88-9.5-5.18-17.32-10.66-20.43l-.19-1.94-5.79.54c-8,.75-13.53,11.72-12.34,24.53s8.64,22.58,16.64,21.83l5.79-.54L228,212.5C232.77,208.41,235.59,199.92,234.71,190.44Z"/><path class="cls-8" d="M240.51,189.87c1.19,12.81-4.33,23.79-12.34,24.53s-15.46-9-16.67-21.83,4.33-23.84,12.33-24.53S239.31,177.08,240.51,189.87Z"/><path class="cls-11" d="M246.73,182.39l-22.48,2.07a2.4,2.4,0,0,1-2.62-2.16h0a2.41,2.41,0,0,1,2.17-2.62h0l22.47-2.08a2.42,2.42,0,0,1,2.63,2.17h0a2.41,2.41,0,0,1-2.17,2.62Z"/><path class="cls-11" d="M248.4,200.21l-22.48,2.07a2.42,2.42,0,0,1-2.62-2.17h0a2.4,2.4,0,0,1,2.17-2.62h0L248,195.41a2.42,2.42,0,0,1,2.62,2.17h0a2.39,2.39,0,0,1-2.16,2.62Z"/><path class="cls-10" d="M176.34,170.06s-5.41,1-8,4.15-7.82,27.09-6.6,29.85,20.64,6.22,26.64,6.72a86,86,0,0,0,14.44-.65s5.19-.13,6.61-.37,4-1.64,4.07-2.17-.22-1.79-2.16-1.94-6.09-1.55-6.62-1.59a35.16,35.16,0,0,1,3.78-.77s.27-1-1.86-1-4.07-.15-4.88,1a17.64,17.64,0,0,0-1.47,2.91s-12,.83-18.47-2.34-8.55-4.22-8.55-4.22L178,181"/><path class="cls-8" d="M209.42,209.79c1.45-.24,4-1.64,4.08-2.16s-.22-1.8-2.16-1.95-6.09-1.55-6.62-1.59a35.16,35.16,0,0,1,3.78-.77s.27-1-1.86-1-4.08-.15-4.88,1a19,19,0,0,0-1.48,2.91s-12,.84-18.46-2.34-8.55-4.22-8.55-4.22l2.84-11.4a40.64,40.64,0,0,0-11.58-2.87c-1.93,7.81-3.52,17-2.79,18.65,1.2,2.76,20.64,6.22,26.64,6.72a86,86,0,0,0,14.44-.65S208,210,209.42,209.79Z"/><path class="cls-8" d="M121.9,219.71s-4,3-3.39,5,3.95-2.07,4.78-3.26S123.47,218.42,121.9,219.71Z"/><path class="cls-8" d="M122.69,222.39s-4,3-3.39,5,4-2.08,4.78-3.27S124.25,221.09,122.69,222.39Z"/><path class="cls-8" d="M124.59,224.13s-4,3-3.38,5,4-2.08,4.78-3.27S126.16,222.83,124.59,224.13Z"/><path class="cls-8" d="M126.15,225.54s-3.45,2.22-2.87,3.86,3.43-1.46,4.15-2.42S127.56,224.5,126.15,225.54Z"/></g></svg>