<svg id="Layer_1" data-name="Layer 1" xmlns="http://www.w3.org/2000/svg" viewBox="0 0 500 140"><defs><style>.cls-1{fill:#fe6e11;}.cls-2{fill:#73b743;}.cls-3{fill:#8a2be2;}.cls-4{fill:#8e5502;}.cls-5{fill:#67b92c;}.cls-6{fill:#b81804;}.cls-7{fill:#63b133;}.cls-8{fill:#e49b19;}.cls-9{fill:#89b24f;}.cls-10{fill:#5cbb2c;}.cls-11{fill:#66b233;}.cls-12{fill:#d5b404;}</style></defs><path class="cls-1" d="M200.63,71.49c-1.8-3.62-5.09-4.72-8.82-4.91a47.83,47.83,0,0,0-8.7.56c-2.71.36-5.42.88-8.17.52-2-.27-3.27-1.47-3.1-2.89s1.1-1.77,3.48-1.54a26.44,26.44,0,0,0,14.93-2.63c4.84-2.48,7.78-6.22,7.07-12a2.52,2.52,0,0,1,.93-2.29,9.41,9.41,0,0,0,3.19-6.92,3.33,3.33,0,0,0-1.62-3.08c-1.15-.65-2,.2-2.81.82a12.68,12.68,0,0,1-11.18,2.43c-6.9-1.64-13.63-1.47-20,2.05-2.88,1.59-5.34,3.65-6.3,6.9-1.3,4.45.08,8.2,3.41,11.35,1.54,1.46,1.45,1.63-.31,2.78a14.68,14.68,0,0,0-2.33,1.81c-3,3-3,6.36.09,9.33a10.38,10.38,0,0,0,.78.69c1.05.86,1.05,1.46-.25,2.15-2.55,1.35-3.39,3.53-2.59,6.32a8.66,8.66,0,0,0,4.55,5.24c4.5,2.43,9.41,2.85,14.4,2.87a35.84,35.84,0,0,0,8.33-.74c5.66-1.19,10.83-3.28,14.13-8.41C201.85,78.61,202.44,75.12,200.63,71.49ZM174.56,46.91A3.65,3.65,0,0,1,178.08,44a3.86,3.86,0,0,1,3.73,2.4A12.42,12.42,0,0,1,183,52.48a6.45,6.45,0,0,1-1,3.86c-1.56,2.4-4.52,2.64-6.06.28A11.9,11.9,0,0,1,174.56,46.91Zm9.8,36.29c-2,1.3-4.29,1.29-6.56,1.47a13.84,13.84,0,0,1-6.22-1.43,5.06,5.06,0,0,1-2-1.87,2.4,2.4,0,0,1-.2-2.34c.46-.86,1.27-.31,1.9-.23a35,35,0,0,0,9.91,0,17.51,17.51,0,0,1,1.92-.08,2.32,2.32,0,0,1,2.56,1.66A2.43,2.43,0,0,1,184.36,83.2Z"/><path class="cls-1" d="M467,43c-.18-1.65-1.39-2.36-2.75-2.81a16.35,16.35,0,0,0-5-.59,16.85,16.85,0,0,0-6.83,1.13c-2.6,1.19-3.14,3-1.57,5.3a7.15,7.15,0,0,1-.75,9.06c-1,1-1.88,1.05-2.74-.11A29.86,29.86,0,0,1,445,50.85a4.56,4.56,0,0,1,.25-5.06,3.2,3.2,0,0,0-.62-4.52A7.22,7.22,0,0,0,441.76,40a40.44,40.44,0,0,0-12.18-.12c-2.73.27-5.47.57-7.83,2.14-2.15,1.43-2.16,4.6.16,5.54,2.81,1.15,4.27,3.24,5.37,5.82.45,1.07,1,2.11,1.46,3.16,2.8,6,5.62,12,8.38,18,.67,1.48,1.22,3,.55,4.71a2.49,2.49,0,0,1-2.45,1.88c-1.22-.06-1.57-1-1.81-2a12.11,12.11,0,0,0-.58-2,5.39,5.39,0,0,0-5-3.49,6.21,6.21,0,0,0-6.2,3.66,7.58,7.58,0,0,0,1.26,8c4.49,4.66,13.66,4.85,19.51.48,4.55-3.4,6.93-8.22,8.88-13.3,2.4-6.23,4.65-12.53,7-18.77,1.24-3.27,2.84-6.21,6.63-7.29A2.93,2.93,0,0,0,467,43Z"/><path class="cls-1" d="M259.32,74.82a25.11,25.11,0,0,0,10.73,2.06c1.22-.06,2.45,0,3.67-.19,9-1,15.92-6,17.47-15.3s-1.83-16.83-10.53-20.28A26.36,26.36,0,0,0,262,40.76c-6,2-10.25,5.86-12.15,12C247.05,61.87,251,71.18,259.32,74.82ZM266,51.44A6.78,6.78,0,0,1,272.82,50a5.91,5.91,0,0,1,4.31,5.16c.57,3.41.18,6.64-2,9.37a6.34,6.34,0,0,1-7.1,2A6.27,6.27,0,0,1,263.41,61c-.11-.74-.13-1.5-.2-2.25C263.28,56,263.9,53.38,266,51.44Z"/><path class="cls-1" d="M206.72,68.53a3.76,3.76,0,0,0-2,4.13c.38,1.79,1.78,2.61,3.44,3.08a34.9,34.9,0,0,0,10.13,1A48.83,48.83,0,0,0,229,76a4.54,4.54,0,0,0,3.89-3.91c.13-1.87-.84-3-3.29-3.91-.22-.08-.43-.16-.66-.22a3,3,0,0,1-2.33-2.87,69.55,69.55,0,0,1-.28-9.57,7.47,7.47,0,0,1,.35-2.75c.42-1,1.16-1.47,2.17-.74a14,14,0,0,1,1.94,1.75c3,3.2,8.9,2.65,11.78-.53,3.35-3.71,3.37-9.38.14-12.66-3-3.07-9.39-3.28-12.91,1.39-.64.84-1,2.51-2.42,2.08s-.9-2-1.1-3.07c-.43-2.33-.85-2.78-3.21-2.67a39.2,39.2,0,0,0-15.43,4,3.9,3.9,0,0,0-2.57,3.64c0,1.77,1.3,2.52,2.66,3.1a2.86,2.86,0,0,1,1.86,3c-.06,3.89.08,7.78-.32,11.68C209.07,65.72,208.61,67.39,206.72,68.53Z"/><path class="cls-1" d="M345.74,73.75c7,5,19,4.23,25.75-1.67a7.7,7.7,0,0,0,2.25-2.84,4.17,4.17,0,0,0-1.07-4.77c-1.43-1.2-2.57-.28-3.78.45A12.68,12.68,0,0,1,361.1,67,8.42,8.42,0,0,1,354,62.26c-1-1.9-.47-2.67,1.61-2.67,2.57,0,5.13,0,7.69,0s4.91-.16,7.34,0c3.64.28,4.86-2.2,5-4.89.18-4-1.49-7.21-4.12-10-7.5-8-22.74-7.19-29.91,2.44A18.59,18.59,0,0,0,345.74,73.75Zm9-26.52a3.67,3.67,0,0,1,4.13-1,3.76,3.76,0,0,1,2.4,2.13c1.18,2.71.18,4.24-2.8,4.26h-1.39c-1.29-.1-3,.47-3.59-1.08S353.66,48.45,354.77,47.23Z"/><path class="cls-1" d="M322,76.38c3.91-.84,7.35-2.61,9.69-6a4.76,4.76,0,0,0,0-5.84c-1.49-1.72-3.07-1-4.75-.29-4.7,2-9.18,1.15-12-2.44-2.49-3.16-3.48-6.71-1.72-10.58a4.08,4.08,0,0,1,4.2-2.54c1.88.12,2.87,1.32,3.41,3,.16.49.32,1,.5,1.48,1.52,4.2,5.3,5.58,9.25,3.39,4.4-2.45,4.88-8.63.87-12.35s-8.61-4.92-15-4.91a20.87,20.87,0,0,0-13.73,5.39,18,18,0,0,0-.89,26.5C307.48,76.85,314.4,78,322,76.38Z"/><path class="cls-1" d="M404.15,42.07a17.41,17.41,0,0,0-1.74,2.17c-.36.5-.73.91-1.41.84s-.82-.73-.92-1.29c-.17-.85-.32-1.71-.42-2.57a1.72,1.72,0,0,0-1.88-1.67,33.07,33.07,0,0,0-16.72,4.26c-2.69,1.57-2.44,4.55.41,5.81a3.48,3.48,0,0,1,2.27,3.68c-.08,3-.23,5.92-.25,8.88s-.53,5.35-3.25,7.18C378,70.89,378.5,74,381,75.21a11.13,11.13,0,0,0,2.48.83c3,.71,6,.73,10.46.68,2.22-.09,5.92.17,9.45-1a3.92,3.92,0,0,0,2.89-3.89c0-1.91-1.37-2.68-2.89-3.29a8,8,0,0,0-.83-.26,3,3,0,0,1-2.35-2.86,66.46,66.46,0,0,1-.23-10.27c0-1-.06-2.09,1.13-2.52s1.63.61,2.33,1.17a7.26,7.26,0,0,1,.78.69c3,3.24,9,2.51,11.8-.91s2.8-9-.44-12C412.54,38.67,407.36,38.92,404.15,42.07Z"/><path class="cls-2" d="M270.2,32.1c3.95,3.5,8.89,4,13.93,4,.82,0,.95-.52.9-1.17-.38-4.59-1.44-9-4.46-12.61-3.25-3.91-7.89-4.58-11.84-5-3.41-.11-3.86.17-3.81,2.85A15.74,15.74,0,0,0,270.2,32.1Z"/><path class="cls-2" d="M289.38,37.52a27.8,27.8,0,0,0,5.72,3.3c4.57,1.85,8.63,1.16,12.15-2.39A38.54,38.54,0,0,0,310.82,34c1.05-1.41.69-2.15-.55-3.08a12.74,12.74,0,0,0-16.77.94c-.86.81-1.41,2-2.61,2.4-.51,1.1-1,2.21-1.51,3.31Z"/><path class="cls-3" d="M284,38.29c-.78.8-1.27,1.75-.15,2.7a2.42,2.42,0,0,0,3.56,0,17.08,17.08,0,0,0,1.95-3.46h0c0-1.32.23-2.56,1.51-3.31a10.36,10.36,0,0,0,.5-5.48c-.25-1.32-1-2.49-2.54-2.35s-1.46,1.39-1.37,2.43A11.55,11.55,0,0,1,284,38.29Z"/><path class="cls-4" d="M289.38,37.52c.5-1.1,1-2.21,1.51-3.31C289.61,35,289.4,36.2,289.38,37.52Z"/><path class="cls-5" d="M257.24,111c.07-1.62,0-3.25,0-4.88h0c0-2.56.14-5.13,0-7.67a7.52,7.52,0,0,0-6.05-7c-4.87-1.22-8.91.39-12.46,3.69-1.48,1.37-1.64,1.33-2.68-.41a6.77,6.77,0,0,0-4.8-3.41,12.56,12.56,0,0,0-11.52,3.56c-.66.64-1.12,2-2.27,1.48s-.53-1.67-.58-2.56c-.13-2.49-.75-3-3.29-2.66a50.17,50.17,0,0,0-10.76,2.95,5.55,5.55,0,0,0-2.15,1.44,2.07,2.07,0,0,0,.18,3.32,5.24,5.24,0,0,1,2.1,4.55c0,2,.09,4,0,5.93-.18,3.09,0,6.28-2.94,8.55-1.14.88-.64,2.52.69,3.34a9.58,9.58,0,0,0,4.38,1c3.91.34,7.81.37,11.52-1.15,1.62-.67,2.3-1.94,1.52-3.32-1.65-2.92-1.45-6-1.41-9.18a25.61,25.61,0,0,1,.58-6.41,2.3,2.3,0,0,1,2.12-1.78,2.37,2.37,0,0,1,2.6,1.35,7.38,7.38,0,0,1,.67,2.15c.49,3.2,0,6.38-.06,9.57a4.54,4.54,0,0,1-1.51,3.38c-2.12,2.07-1.51,4.25,1.37,4.94a32.53,32.53,0,0,0,10.6.42,11.17,11.17,0,0,0,4.05-1c2-1,2.43-2.39,1.33-4.26a7.78,7.78,0,0,1-1.41-3.52,90.57,90.57,0,0,1,0-10.29c.13-2,1.18-3.09,2.81-3.19s2.71.78,3.07,2.87A40,40,0,0,1,243,113a7.75,7.75,0,0,1-1.49,4.19c-1.12,1.52-.81,3,.85,3.76a19.56,19.56,0,0,0,15.45.16,2.5,2.5,0,0,0,1.15-3.9C257.36,115.36,257.14,113.29,257.24,111Z"/><path class="cls-5" d="M335.66,111.74A116.57,116.57,0,0,0,335,99.21a8.47,8.47,0,0,0-6.76-7.72c-4.22-1.09-8.13-.55-11,3.15-.56.71-1,1.56-2.06,1.27s-.79-1.39-.83-2.21c-.1-2-1-2.9-2.85-2.57a47,47,0,0,0-12.76,4.09c-2.25,1.12-2.37,3.19-.21,4.58a4.23,4.23,0,0,1,2.05,4.09c-.1,3.13-.18,6.27-.36,9.4a4.19,4.19,0,0,1-1.29,3.29c-2.28,1.93-2,4.19.86,5a25,25,0,0,0,14.8-.27c2.11-.67,2.62-2.48,1.31-4.29a8.62,8.62,0,0,1-1.47-5.1c0-1.16,0-2.32,0-3.91a35.12,35.12,0,0,1,.45-5.47,2.82,2.82,0,0,1,2.82-2.37c2.08-.19,3.31.77,3.86,3.16a33.06,33.06,0,0,1,.28,9.37,7.8,7.8,0,0,1-1.95,5.09,2.3,2.3,0,0,0,.75,3.56,6,6,0,0,0,2.13.74,32.67,32.67,0,0,0,8,.24c2.06-.17,4.21-.07,6.12-1.16s2.22-2.83.74-4.29A6.78,6.78,0,0,1,335.66,111.74Z"/><path class="cls-5" d="M381,114.9a3,3,0,0,1-1.62-3c.09-2.9,0-5.81,0-8.72h.07c0-3,0-6,0-9.07,0-2-.78-3-2.64-3A36,36,0,0,0,363.56,93c-2.2.81-2.41,3-.39,4.25a4.33,4.33,0,0,1,2.24,4.16c0,2.5.09,5,.06,7.5a18.19,18.19,0,0,1-.36,3.28,3.23,3.23,0,0,1-6.29.21,9.21,9.21,0,0,1-.39-3.1c0-5.35,0-10.7,0-16.05,0-1.6-.69-2.2-2.2-2.19a55.64,55.64,0,0,0-9.55.9,14.72,14.72,0,0,0-4.37,1.16c-1.8.94-2.15,3.21-.53,4,2.48,1.25,3,3.27,3,5.77a99.09,99.09,0,0,0,.26,10.62c.48,5.09,2.88,7.8,7.92,8.72a12.74,12.74,0,0,0,10-2.52c1.83-1.31,2.31-1.12,2.76,1a1.82,1.82,0,0,0,1.88,1.69c4.58,0,9.08-.42,13.19-2.63C383.32,118.47,383.36,116.31,381,114.9Z"/><path class="cls-5" d="M278.52,90.9c-10.35.52-17.9,9.66-15.76,19.14,1.4,6.19,5.06,10.5,11.31,12,6.48,1.55,12.49.39,17.53-4.28a4,4,0,0,0,1.36-3.61c-.31-2.3-2-3.12-4-1.86a13.08,13.08,0,0,1-4.17,1.71c-3.61.83-7.41-.89-8.69-3.89-.66-1.55-.29-2.21,1.39-2.24,2.33,0,4.66,0,7,0h0c2.21,0,4.43,0,6.64,0a2.64,2.64,0,0,0,2.7-1.79,8,8,0,0,0,0-6C291.6,94.08,285.71,90.53,278.52,90.9Zm3.87,10.16c-.65,1.56-2.24.7-3.25.94a3.38,3.38,0,0,1-.34,0c-1.11-.17-2.56.55-3.14-1.08-.43-1.19.58-3.24,1.89-4a3.54,3.54,0,0,1,4,.61A3.2,3.2,0,0,1,282.39,101.06Z"/><path class="cls-5" d="M403.63,102.19a9.34,9.34,0,0,1-2.69-1.58,1.88,1.88,0,0,1-.42-2.52,1.91,1.91,0,0,1,2.56-.84,6.16,6.16,0,0,1,1.74,1.14c1.06.91,2.06,1.9,3.19,2.71a3.43,3.43,0,0,0,4.09.19c1.33-.89,1.43-2.3,1-3.76a12.67,12.67,0,0,0-3.25-5.68A2.61,2.61,0,0,0,407,91a10.52,10.52,0,0,1-6.16.09,13.35,13.35,0,0,0-5,0c-4.11.75-7.07,3-8.32,7s-.11,7.44,3,10.23a25.37,25.37,0,0,0,5.7,3.68,6.3,6.3,0,0,1,2.05,1.31,1.78,1.78,0,0,1,.49,2.06,2,2,0,0,1-1.8,1.18,3.93,3.93,0,0,1-3.1-1.34l-3.68-3.72a2.61,2.61,0,0,0-3-.73c-1.12.49-1.27,1.58-1.25,2.67a12.49,12.49,0,0,0,3.07,7.61,2.61,2.61,0,0,0,2.31,1c3.29-.34,6.5.35,9.75.51a12.4,12.4,0,0,0,10.25-3.9,8.42,8.42,0,0,0-.11-11.52A25.13,25.13,0,0,0,403.63,102.19Z"/><path class="cls-3" d="M496.16,116.87c-1.51-2-.67-4.16-.92-6,0-1.19,0-2.12,0-3.05,0-3.93-2.76-5.88-6.57-4.72a5.77,5.77,0,0,0-2.54,1.46c-.83.86-1.38,1-2.14-.12a3.77,3.77,0,0,0-3.47-1.62,7.09,7.09,0,0,0-5.15,2.15c-.27.27-.5.75-1,.59s-.52-.72-.5-1.17c0-.92-.09-1.65-1.29-1.54a17.9,17.9,0,0,0-6.65,1.89c-1,.51-1.09,1.26-.37,2.15,1.64,2,1.51,7.74-.19,9.75-1,1.17-.8,2,.74,2.34a13.73,13.73,0,0,0,6.74,0c1.8-.45,2-.94,1.42-2.71-.82-2.43-.53-4.93-.17-7.4a1.37,1.37,0,0,1,2.64-.23c.66,2.74.91,5.47-.69,8-.72,1.15-.58,2.1.76,2.37a15.61,15.61,0,0,0,7.77-.14c1.22-.37,1.64-1.18.92-2.42-1.42-2.43-.8-5.08-.65-7.65a1.38,1.38,0,0,1,1.45-1.27,1.35,1.35,0,0,1,1.4,1.1c.4,2.64.76,5.35-.52,7.83-.63,1.24-.34,2,.74,2.34a11.4,11.4,0,0,0,7.21.06C496.14,118.57,496.76,117.65,496.16,116.87Z"/><path class="cls-3" d="M460.8,104.73c-2.55-2.17-5.55-2.39-8.71-1.79a8.89,8.89,0,0,0-7.38,9.66c.32,4,3.78,6.71,8.51,6.76a11,11,0,0,0,6.31-1.65C464.65,114.56,465.26,108.54,460.8,104.73Zm-5.61,10.61c-1.24.3-1.73-.61-2.13-1.56a20,20,0,0,1-1.18-5.06,1.83,1.83,0,0,1,1.22-2.23c1.14-.33,1.68.5,2.09,1.38a16,16,0,0,1,1.14,4.85C456.37,114.06,456.35,115.06,455.19,115.34Z"/><path class="cls-3" d="M427.45,107.83a8.23,8.23,0,0,0,7.86,11.53c2.95,0,5.13-.63,6.79-2.5a2.14,2.14,0,0,0,.36-2.86c-.68-1-1.47-.43-2.31-.12a4.56,4.56,0,0,1-6.28-3.44c-.35-1.63.25-3.16,1.45-3.54,1.83-.56,2.14.85,2.58,2.06.56,1.56,1.76,1.9,3.22,1.59a2.71,2.71,0,0,0,2.2-2,3.6,3.6,0,0,0-1-3.67C438.26,100.82,429.66,102.52,427.45,107.83Z"/><path class="cls-3" d="M421.57,111.65a3.68,3.68,0,0,0-3.8,3.88,3.64,3.64,0,0,0,3.82,3.83,3.84,3.84,0,0,0,3.89-3.85A3.89,3.89,0,0,0,421.57,111.65Z"/><path class="cls-6" d="M108.09,41.63c3.17-3.77,7.07-4.28,11.5-2.6a26.72,26.72,0,0,0,3.36.88,6.85,6.85,0,0,0,5.2-.77,10,10,0,0,1,13.07,3.08A14.53,14.53,0,0,1,143,55.35c-.33,1.09-1,1-1.84,1-11.09-.76-22.17-1.52-33.26-2.21-1.13-.07-1.73-.44-1.91-1.53-.12-.69-.27-1.37-.41-2a1.54,1.54,0,0,1,0-1.65,23.56,23.56,0,0,0,1.79-6.13A1.35,1.35,0,0,1,108.09,41.63Z"/><path class="cls-7" d="M108.09,41.63a45.06,45.06,0,0,1-2.52,8.89c-1.17,2.69-3.19,3.12-5.93,2.67a55.44,55.44,0,0,0-8.36-.48c-1.36,0-1.53-.56-1.36-1.69A15.65,15.65,0,0,1,94,42c.52-.53,1.47-1.13.94-2s-1.47-.57-2.26-.52a5.28,5.28,0,0,0-5.11,4.43,40.43,40.43,0,0,0-.67,6.76c0,1-.29,1.47-1.41,1.38-1.68-.14-3.37-.19-5.06-.19-1,0-1.4-.27-1.52-1.36a23.72,23.72,0,0,1,1-10.31,26.49,26.49,0,0,0,1.53-6.07c.16-1.71-.53-2.23-2.19-1.75a3.62,3.62,0,0,0-2.72,3.07,40.21,40.21,0,0,0-.21,13.18c.14.87,1,2.2-.37,2.66a3.32,3.32,0,0,1-4.26-1.63A1.72,1.72,0,0,1,71.19,48c.5-3.87.12-7.76.47-11.63a20.16,20.16,0,0,0,3-4.8c.54-1.31,2.3-1.37,2.87-2.68a.44.44,0,0,1,.5,0c.56.13,1.12.29,1.69.37s1.14-.13,1-.82c-.24-1.66.77-2.09,2.09-2.27A3.21,3.21,0,0,1,86.35,28c1.08,2,.39,3.14-1.88,3.32-.77.07-1.61,0-1.87.95s.67,1.23,1.28,1.6A49.17,49.17,0,0,1,89,37.41a3,3,0,0,0,4.12,0c1.18-.93,2.48-1.71,3.67-2.64s1-1.76-.31-2.33a10.39,10.39,0,0,1-3.61-2c-.6-.61-.53-.9.24-1.22,1.28-.51,2.5-1.14,3.77-1.66,2.57-1.05,4.42-.24,5.21,2.4a5.42,5.42,0,0,0,2.34,3.24c2.88,1.75,3.86,4.34,3.6,7.55A6.41,6.41,0,0,0,108.09,41.63Z"/><path class="cls-8" d="M72,36c0,4.54,0,9.09-.29,13.63-.17,1.54-1.07,1.77-2.5,1.67-5.93-.42-11.88-.71-17.82-1,.71-.64.39-1.41.38-2.19a14.6,14.6,0,0,0-1.73-7.67c.77-1,.38-2.1.49-3.15.09-.78.31-1,1-1,1.39.08,2.79,0,4.17.19.71.08,1.3.19,1.55-.61a1.34,1.34,0,0,0-.8-1.71,8.2,8.2,0,0,0-4.38-.94c-1.2.09-1.48-.37-1.45-1.47.05-1.91,0-3.83,0-5.74a3.16,3.16,0,0,1,2.65-3.36,25.22,25.22,0,0,1,5.56-.31,1.36,1.36,0,0,1,2,.12c3.31.45,6.57,1,9,3.67A15.67,15.67,0,0,1,71,27.37,1.49,1.49,0,0,1,71.19,29c-.33.56-.94.31-1.44.29-1.74-.07-3.48-.27-5.22-.22-1.05,0-2.6.22-2.56,1.52s1.55,1,2.56,1.15l7.08.74A3.72,3.72,0,0,1,72,36Z"/><path class="cls-9" d="M133.43,28.92c1.44-.34,1.59.45,1.35,2-.75,4.54-5.77,8.55-10.43,8.2-1.29-.1-1.69-.69-1.46-2C123.82,31.91,126.4,29.54,133.43,28.92Z"/><path class="cls-10" d="M60.86,22.41l-2-.12A39.26,39.26,0,0,0,52,17.22,11.3,11.3,0,0,1,49,15a4.69,4.69,0,0,1,4.77,1.08,23,23,0,0,0,2.8,2.34c1.43.93,2.34.41,2.45-1.27.05-.69,0-1.39,0-2.09,0-.54-.19-1.28.55-1.48s.84.49,1.14.9a5.27,5.27,0,0,1,1.12,3.56c-.07,1.62.42,1.87,1.85,1.06,1.21-.69,2.38-1.46,3.6-2.12.61-.33,1.48-.64,1.86.12s-.56.91-1,1.2A34.15,34.15,0,0,1,60.86,22.41Z"/><path class="cls-11" d="M96.16,33.55a15.82,15.82,0,0,1-5,1.86,2.59,2.59,0,0,1-2.29-.5,5.33,5.33,0,0,0-3-1.36c-.33,0-.78,0-.76-.48s.36-.57.73-.6a12.83,12.83,0,0,0,1.39,0c.94-.19,1.49-.78,1.12-1.76-1.24-3.3-.36-6.65-.35-10,0-.38,0-.85.63-.86s.58.48.61.85c.21,2,.35,3.93.58,5.89A9.31,9.31,0,0,0,91,30.19c.87,1.47,1.92,2.62,3.8,2.65A1.64,1.64,0,0,1,96.16,33.55Z"/><path class="cls-3" d="M120.53,36.29a7.61,7.61,0,0,0-3.49-1.4c-.37,0-.73-.15-.68-.59s.47-.64.9-.57A3.73,3.73,0,0,1,120.53,36.29Z"/><path class="cls-3" d="M145.94,67c0-4.42-2.85-7.33-7.24-7.62-9.82-.65-19.64-1.22-29.45-1.83L84.84,56.07l-37-2.36c-6.8-.43-13.6-.9-20.4-1.31a1.23,1.23,0,0,1-1.35-1.18,36.88,36.88,0,0,0-1.37-4.86C22.42,39.9,18.92,34.67,11.26,34c-2-.19-4.06-.5-6,.33-.9.37-1.7,1-1.62,2s1,1.51,1.89,1.81a7.16,7.16,0,0,0,2.6.25c5.31-.32,8.76,2.39,10.86,6.92a46.43,46.43,0,0,1,3.73,12.83C23.56,64,24.14,70,24.88,75.91c1.23,10,2.53,19.91,3.68,29.88.18,1.54.69,1.87,2.14,1.87q28.34-.07,56.66,0s37.89-.11,56.83-.11c.86,0,1.71.22,1.7-1.22C145.88,93.2,146,80.11,145.94,67ZM32.5,63.25a5.74,5.74,0,0,1,5.83-6,5.93,5.93,0,1,1,.15,11.86A5.73,5.73,0,0,1,32.5,63.25Zm1.76,16.64a5.94,5.94,0,1,1,5.82,6A5.93,5.93,0,0,1,34.26,79.89Zm8.05,22.37a5.93,5.93,0,1,1,5.93-5.85A5.94,5.94,0,0,1,42.31,102.26ZM70.94,57.59a5.93,5.93,0,1,1-5.89,5.89A5.89,5.89,0,0,1,70.94,57.59Zm.14,15.71a5.93,5.93,0,1,1-6,5.92A5.94,5.94,0,0,1,71.08,73.3Zm.56,28.62a5.94,5.94,0,1,1,6-6A6,6,0,0,1,71.64,101.92Zm29.15,1.74a5.93,5.93,0,1,1,5.88-6.08A6,6,0,0,1,100.79,103.66ZM101,86.55a5.93,5.93,0,1,1,6.05-5.9A5.93,5.93,0,0,1,101,86.55Zm.57-16.08a5.92,5.92,0,1,1,5.84-5.93A6,6,0,0,1,101.53,70.47ZM128.87,104A5.93,5.93,0,1,1,135,98.2,6,6,0,0,1,128.87,104Zm2-16.41a5.91,5.91,0,0,1-6-5.93,6,6,0,0,1,5.85-5.92,5.93,5.93,0,1,1,.17,11.85Zm1-15.72A5.91,5.91,0,0,1,125.93,66a5.94,5.94,0,1,1,5.93,5.85Z"/><path class="cls-3" d="M123.56,108.21a13.09,13.09,0,1,0,13.21,13A13.09,13.09,0,0,0,123.56,108.21Zm0,20.59a7.5,7.5,0,0,1,0-15,7.6,7.6,0,0,1,7.65,7.58C131.36,125.24,127,129.25,123.55,128.8Z"/><path class="cls-3" d="M46.09,108.21a13.09,13.09,0,1,0,13.34,12.85A13.13,13.13,0,0,0,46.09,108.21Zm.17,20.59a7.5,7.5,0,1,1,7.58-7.45A7.5,7.5,0,0,1,46.26,128.8Z"/><path class="cls-12" d="M51.81,43.41a4.53,4.53,0,0,0-1.76-3.06,37,37,0,0,1-2.24-9.28c-.19-1.78-.2-3.68-1.2-5.23-1.79-2.76-2.85-5.84-4.22-8.78a27.23,27.23,0,0,0-7.48-9.95c-3-2.43-5.82-1.88-7.58,1.55A16.92,16.92,0,0,0,25.4,16a100.9,100.9,0,0,0,1.34,17.87A79,79,0,0,0,29.8,48c.21.61.34,1.16,1.23,1.2,6.79.31,13.58.68,20.37,1a1.47,1.47,0,0,0,.94-1.65A38.58,38.58,0,0,0,51.81,43.41ZM32.22,24.5c-.9-.41-2.2-.56-2.23-1.77s1.22-1.24,2-1.51a19.56,19.56,0,0,1,7.59-1.44c.54.1,1.63-.57,2.3.45a6.33,6.33,0,0,1,.78,4.09c0,.74-.79.88-1.41.84-2.92-.18-5.84-.4-8.77-.61A.71.71,0,0,1,32.22,24.5ZM47.71,37.94c-.05.8-.86,1-1.53.92-3.17-.2-6.34-.44-9.51-.66a.88.88,0,0,1-.32-.07c-1-.44-2.38-.6-2.41-1.91s1.32-1.35,2.19-1.64A21.45,21.45,0,0,1,44.37,33c.58.11,1.77-.61,2.5.49A6.84,6.84,0,0,1,47.71,37.94Z"/></svg>