<?xml version="1.0" standalone="no"?>
<!DOCTYPE svg PUBLIC "-//W3C//DTD SVG 20010904//EN"
 "http://www.w3.org/TR/2001/REC-SVG-20010904/DTD/svg10.dtd">
<svg version="1.0" xmlns="http://www.w3.org/2000/svg"
 width="2000.000000pt" height="2000.000000pt" viewBox="0 0 2000.000000 2000.000000"
 preserveAspectRatio="xMidYMid meet">
<metadata>
Created by potrace 1.14, written by Peter Selinger 2001-2017
</metadata>
<g transform="translate(0.000000,2000.000000) scale(0.100000,-0.100000)"
fill="#000000" stroke="none">
<path d="M1220 12572 c-91 -28 -170 -165 -198 -342 -14 -92 -1 -453 22 -600 3
-19 8 -55 11 -80 3 -25 7 -56 10 -70 2 -14 7 -45 9 -70 3 -25 10 -70 15 -100
5 -30 12 -71 16 -90 3 -19 9 -44 12 -55 3 -11 7 -29 9 -40 1 -11 14 -63 29
-115 14 -52 28 -103 30 -114 11 -48 31 -63 92 -65 32 -1 81 -4 108 -6 28 -2
115 -6 195 -10 80 -3 183 -9 230 -11 47 -3 119 -7 160 -9 41 -2 111 -6 155 -9
44 -4 127 -8 185 -11 58 -3 143 -7 190 -10 47 -3 119 -7 162 -10 42 -2 80 -5
85 -6 41 -7 85 4 105 26 l22 25 26 -25 c29 -28 84 -41 124 -31 36 9 49 38 37
84 -6 20 -13 62 -16 92 -3 30 -8 56 -10 59 -2 2 0 12 6 22 5 11 6 19 1 19 -13
0 -4 225 13 335 10 62 35 105 76 131 46 29 104 32 117 7 19 -37 0 -151 -50
-298 -11 -33 -22 -73 -25 -90 -2 -16 -8 -43 -12 -60 -11 -44 -12 -237 0 -278
11 -41 14 -42 146 -42 57 0 103 -3 103 -6 0 -13 51 4 59 20 4 9 9 44 9 78 1
34 4 82 7 105 4 24 8 54 10 68 9 68 17 94 40 129 30 49 68 78 114 90 90 24
131 19 150 -18 9 -16 5 -25 -22 -53 -73 -75 -140 -191 -162 -278 -20 -76 -24
-142 -11 -156 7 -7 53 -12 121 -14 113 -1 127 -2 230 -15 140 -17 189 -5 244
62 30 36 31 37 32 13 1 -50 26 -108 47 -111 4 -1 23 -3 42 -4 97 -7 244 -17
315 -21 44 -2 105 -6 135 -9 30 -2 98 -7 150 -10 52 -3 120 -8 150 -10 30 -3
98 -7 150 -10 52 -3 118 -7 145 -10 121 -10 276 -19 312 -16 72 4 99 247 46
411 -88 274 -345 396 -587 279 -33 -16 -72 -32 -86 -35 -69 -15 -155 -2 -300
46 -143 48 -279 24 -377 -67 -24 -22 -44 -39 -44 -39 -1 1 -3 24 -4 51 -9 145
-35 192 -164 294 -29 23 -51 52 -68 90 -48 113 -67 132 -131 133 -46 1 -102
-12 -102 -23 0 -5 -3 -8 -7 -7 -18 3 -153 -60 -153 -72 0 -20 51 -58 126 -94
105 -51 101 -71 -40 -170 -124 -87 -148 -92 -216 -46 -25 16 -88 59 -140 94
-101 68 -130 91 -130 104 0 20 29 44 56 47 59 5 93 17 107 38 31 47 -34 164
-94 168 -101 7 -135 -12 -141 -77 -3 -39 -3 -39 -43 -37 -22 1 -48 3 -58 5
-18 4 -49 -17 -111 -77 -17 -17 -51 -67 -76 -110 -45 -79 -45 -80 -48 -45 -3
38 -20 89 -31 91 -8 1 -46 5 -116 12 -33 4 -78 9 -100 11 -22 3 -65 8 -95 11
-54 6 -70 16 -70 45 0 54 40 61 284 50 56 -3 71 0 81 14 19 26 8 48 -52 110
-53 54 -146 109 -203 120 -14 2 -44 9 -68 14 -23 6 -45 10 -47 11 -3 1 -13 1
-22 1 -10 0 16 17 57 38 41 21 109 60 150 87 41 27 78 49 82 50 31 2 30 51 0
58 -17 4 -123 -49 -172 -84 -28 -21 -89 -36 -91 -23 -1 5 -3 33 -5 62 -4 56
-47 157 -71 166 -31 12 -40 -5 -41 -77 -1 -99 -13 -127 -53 -127 -31 0 -75 29
-156 104 -17 16 -44 34 -60 41 -38 15 -109 19 -117 6 -6 -9 26 -51 39 -51 4 0
162 -98 180 -112 6 -5 20 -16 32 -26 12 -9 42 -33 67 -52 25 -19 47 -39 49
-45 3 -6 -20 -10 -59 -9 -82 1 -173 -13 -201 -32 -51 -33 -57 -56 -58 -221 0
-85 3 -159 7 -166 4 -6 42 -14 86 -18 123 -11 200 -61 168 -111 -9 -16 -24
-17 -128 -13 -135 6 -138 4 -138 -82 0 -54 -15 -89 -25 -61 -4 9 -7 22 -9 30
-1 7 -5 18 -9 24 -7 12 -46 169 -53 214 -5 36 -12 97 -18 155 -7 69 -20 108
-55 165 -27 43 -68 127 -106 215 -45 104 -68 154 -86 185 -11 19 -23 43 -26
53 -3 9 -9 17 -14 17 -5 0 -9 5 -9 11 0 15 -92 129 -151 188 -84 84 -183 131
-239 113z m464 -601 c11 -20 20 -56 22 -95 2 -57 0 -64 -19 -73 -22 -10 -81
-9 -197 1 -36 4 -94 8 -130 10 -106 6 -168 42 -156 89 6 24 69 57 107 57 9 0
19 3 23 8 4 4 12 8 17 8 5 1 10 2 12 4 1 1 11 3 22 6 47 10 84 15 155 20 41 3
76 7 78 9 10 10 49 -16 66 -44z m188 -512 c37 -44 52 -175 23 -199 -16 -13
-79 -16 -175 -6 -30 3 -100 8 -155 12 -124 8 -186 29 -199 67 -15 40 0 57 73
83 101 37 189 56 274 59 44 2 81 6 84 9 10 10 59 -6 75 -25z"/>
<path d="M10637 12099 c-31 -12 -39 -35 -40 -111 -2 -257 162 -496 401 -581
39 -15 72 -25 72 -22 0 2 10 1 23 -4 29 -11 136 -23 212 -23 105 0 97 -8 90
80 -2 42 -12 106 -20 142 -9 36 -17 70 -18 77 -2 7 -6 16 -10 19 -4 4 -7 14
-7 22 0 20 -55 126 -88 171 -65 88 -194 181 -273 196 -12 3 -36 9 -53 15 -65
21 -251 33 -289 19z"/>
<path d="M3533 12002 c-13 -8 -24 -144 -23 -272 0 -71 5 -106 20 -145 14 -36
13 -42 -10 -65 -14 -14 -33 -20 -64 -20 -47 0 -60 -8 -47 -29 8 -12 28 -19 61
-20 9 -1 40 -17 70 -37 56 -36 72 -38 155 -20 25 5 104 37 130 53 27 16 7 36
-40 39 -19 2 -45 8 -57 15 -29 15 -75 65 -95 104 -14 26 -20 46 -37 115 -2 9
-7 47 -10 85 -15 160 -18 181 -29 192 -7 7 -17 9 -24 5z"/>
<path d="M11515 11724 c-13 -14 -20 -33 -19 -51 5 -57 5 -79 0 -128 -9 -92
-52 -184 -122 -262 -45 -50 -54 -84 -30 -115 14 -20 57 -38 88 -38 36 0 84 46
109 104 13 31 29 56 36 56 7 0 32 -13 56 -30 193 -130 371 -163 517 -97 73 33
146 97 220 193 61 79 68 89 70 99 1 6 6 15 12 22 34 41 -86 137 -221 177 -49
14 -215 17 -261 3 -89 -25 -163 -70 -236 -143 -40 -39 -80 -74 -89 -78 -16 -6
-16 -4 -4 10 10 12 14 48 14 123 0 87 -3 111 -18 133 -31 46 -90 56 -122 22z"/>
<path d="M5310 11643 c-74 -11 -171 -37 -218 -60 -56 -28 -128 -102 -139 -143
-3 -14 -9 -29 -13 -35 -9 -11 -18 -52 -24 -108 -4 -35 -2 -40 27 -52 84 -35
245 23 347 125 67 67 125 219 100 260 -8 13 -40 18 -80 13z"/>
<path d="M211 11425 c-55 -26 -58 -29 -62 -69 -3 -23 3 -34 32 -58 34 -28 43
-29 145 -33 157 -6 199 -18 279 -79 48 -36 68 -58 105 -111 34 -50 106 -213
126 -285 2 -8 13 -46 24 -85 11 -38 23 -86 26 -105 3 -19 7 -41 9 -48 3 -7 7
-34 10 -60 3 -26 8 -57 10 -69 3 -12 8 -46 11 -75 3 -29 7 -64 10 -78 2 -14 7
-50 10 -80 3 -30 7 -73 10 -95 3 -22 7 -60 9 -84 4 -40 13 -109 31 -246 3 -27
7 -61 9 -75 1 -14 5 -50 9 -80 7 -53 10 -81 21 -165 2 -22 7 -58 10 -80 3 -22
8 -62 10 -90 2 -27 5 -50 5 -50 3 0 9 -43 15 -95 3 -30 7 -66 9 -80 2 -14 7
-52 11 -85 3 -33 9 -73 12 -90 2 -16 6 -50 8 -75 3 -25 6 -61 9 -80 3 -19 7
-62 10 -96 7 -77 20 -112 47 -122 11 -5 1058 -8 2325 -7 1810 1 2307 4 2316
13 10 10 13 157 15 625 2 337 3 617 4 622 0 6 -2 109 -3 231 -4 217 -4 221
-31 277 -28 56 -72 99 -135 131 -49 25 -63 27 -287 41 -38 3 -101 7 -140 9
-38 3 -117 8 -175 11 -58 3 -125 8 -150 10 -25 3 -101 7 -170 11 -69 3 -143 8
-165 9 -22 2 -92 6 -155 9 -63 3 -151 9 -195 12 -89 6 -163 11 -310 19 -55 3
-127 7 -160 10 -33 2 -109 7 -170 10 -124 7 -121 7 -470 30 -81 5 -208 13
-315 20 -41 2 -113 7 -159 10 -96 7 -180 12 -326 20 -55 3 -127 8 -160 11 -33
2 -94 6 -135 9 -102 6 -232 14 -310 20 -36 3 -110 8 -165 10 -55 3 -100 5
-100 6 0 1 -15 2 -206 13 -189 11 -195 13 -204 52 -67 296 -177 499 -327 602
-94 65 -197 93 -356 97 -88 2 -109 -1 -151 -20z m1442 -948 c112 -66 150 -193
93 -308 -30 -58 -54 -83 -111 -109 -119 -55 -248 -12 -311 104 -9 15 -18 57
-21 91 -7 95 29 171 108 220 45 29 61 33 135 30 46 -1 72 -8 107 -28z m1275 1
c50 -15 119 -89 135 -145 27 -91 -2 -197 -68 -249 -16 -13 -35 -28 -40 -32
-30 -24 -114 -32 -185 -19 -31 5 -88 45 -113 79 -81 105 -67 247 30 327 66 55
148 68 241 39z m1234 -49 c60 -31 114 -90 121 -134 1 -11 5 -24 8 -30 19 -36
-10 -147 -51 -196 -91 -111 -250 -114 -353 -7 -27 27 -46 52 -43 56 3 3 1 11
-4 17 -6 7 -12 34 -14 60 -16 184 174 316 336 234z m1164 -35 c42 -5 105 -45
137 -88 76 -100 55 -253 -45 -330 -138 -105 -341 -31 -374 135 -17 88 3 156
66 219 42 42 68 56 123 65 17 4 33 8 36 10 2 3 8 2 13 -1 5 -3 24 -8 44 -10z
m-2387 -550 c138 -58 181 -247 83 -366 -23 -27 -88 -68 -121 -76 -89 -19 -190
13 -240 78 -44 58 -54 86 -54 153 -1 103 56 184 155 218 58 21 116 18 177 -7z
m-1222 -31 c140 -89 169 -259 64 -370 -153 -162 -419 -49 -406 172 7 137 111
228 252 220 37 -2 73 -11 90 -22z m2428 -24 c58 -27 109 -89 128 -156 9 -28
14 -53 12 -55 -2 -2 -6 -20 -8 -40 -4 -39 -43 -112 -74 -140 -42 -39 -113 -61
-178 -56 -160 13 -255 164 -200 318 19 53 87 121 136 137 58 19 135 15 184 -8z
m1191 -39 c44 -19 96 -69 120 -116 35 -66 21 -182 -30 -249 -78 -101 -253
-116 -351 -28 -137 123 -84 349 94 404 42 12 123 7 167 -11z m-2353 -583 c51
-30 68 -49 98 -106 58 -112 0 -266 -121 -318 -49 -21 -147 -20 -190 2 -60 30
-110 86 -129 145 -2 8 -5 42 -5 75 -1 140 102 235 247 229 40 -2 71 -10 100
-27z m-1180 -11 c75 -37 133 -143 125 -229 -16 -160 -181 -259 -327 -197 -180
78 -193 323 -22 425 58 34 153 35 224 1z m2334 -55 c112 -57 160 -203 103
-314 -71 -138 -244 -174 -363 -76 -104 86 -109 258 -10 351 68 65 187 82 270
39z m1108 -3 c118 -45 179 -176 140 -298 -18 -53 -69 -110 -123 -136 -42 -20
-150 -27 -171 -10 -8 6 -16 10 -18 8 -8 -6 -63 30 -87 59 -117 138 -46 351
129 389 37 8 91 3 130 -12z"/>
<path d="M4656 11442 c-7 -11 9 -35 26 -38 46 -9 65 -16 100 -32 21 -11 38
-18 38 -15 0 16 -51 67 -79 79 -37 15 -77 18 -85 6z"/>
<path d="M7925 11345 c-17 -8 -43 -26 -59 -40 -38 -32 -116 -69 -187 -88 -60
-15 -189 -15 -254 2 -22 5 -57 12 -79 15 -21 4 -42 9 -47 12 -16 9 -252 12
-314 3 -66 -9 -107 -16 -115 -20 -3 -1 -9 -3 -15 -4 -55 -8 -204 -76 -286
-131 -143 -94 -212 -222 -204 -378 5 -111 40 -187 129 -284 36 -40 66 -76 66
-80 0 -15 -24 -39 -70 -70 -107 -72 -160 -149 -164 -234 -4 -71 22 -126 90
-196 30 -31 55 -61 56 -67 2 -17 -13 -45 -26 -45 -6 0 -29 -14 -50 -32 -105
-86 -94 -247 25 -366 63 -64 224 -136 348 -157 19 -3 37 -8 41 -10 9 -5 195
-16 290 -17 82 -1 215 8 252 17 13 3 37 7 53 9 17 2 37 6 45 8 8 3 49 15 90
26 41 11 93 29 115 38 22 10 46 19 53 20 8 1 21 9 30 17 10 8 31 22 49 31 74
37 233 215 233 260 0 8 4 18 10 21 14 9 33 83 36 147 7 137 -71 277 -186 336
-44 22 -55 25 -131 41 -40 9 -296 7 -344 -2 -96 -18 -262 -36 -335 -36 -141 0
-217 54 -190 134 13 41 31 47 118 45 205 -7 276 -3 372 20 234 55 415 173 484
313 33 68 38 93 40 208 l1 96 51 56 c76 85 104 150 108 247 3 56 -9 92 -37
118 -32 29 -58 33 -92 17z m-711 -330 c60 -39 96 -138 102 -276 5 -135 -17
-194 -91 -245 -60 -41 -146 -23 -185 38 -28 45 -50 92 -50 108 0 9 -3 20 -7
24 -20 20 -20 187 1 258 24 83 71 118 153 113 28 -2 63 -11 77 -20z m-319
-1373 c68 -7 227 -6 362 3 l112 7 31 -30 c24 -25 30 -38 28 -67 -3 -45 -27
-71 -94 -102 -101 -46 -297 -50 -411 -7 -104 39 -153 88 -153 154 0 45 17 63
50 54 14 -3 48 -9 75 -12z"/>
<path d="M8846 11263 c-2 -2 -30 -6 -62 -9 -146 -14 -470 -124 -530 -179 -55
-51 -65 -149 -19 -191 14 -13 42 -31 63 -41 47 -22 67 -41 77 -73 15 -46 7
-455 -11 -567 -9 -58 -41 -106 -94 -143 -65 -45 -84 -78 -82 -144 3 -79 62
-129 187 -156 33 -7 75 -16 93 -21 35 -8 554 -6 587 3 21 6 111 20 133 21 6 0
12 4 12 9 0 4 7 8 16 8 9 0 30 15 46 32 50 54 65 111 42 167 -17 42 -39 58
-124 93 -66 27 -109 65 -111 96 0 9 -3 26 -5 37 -3 11 -7 110 -9 220 -6 259 9
319 77 302 14 -4 45 -26 69 -50 85 -83 128 -104 227 -111 266 -21 455 267 342
522 -78 176 -321 230 -497 111 -42 -29 -66 -56 -106 -118 -48 -74 -104 -55
-113 39 -6 69 -20 115 -41 132 -15 12 -156 21 -167 11z"/>
<path d="M10665 11219 c-16 -4 -61 -15 -100 -25 -38 -9 -74 -19 -80 -23 -5 -3
-16 -6 -23 -7 -7 -2 -47 -18 -87 -37 -115 -55 -207 -130 -278 -227 -52 -72
-110 -208 -123 -287 -3 -20 -8 -45 -10 -57 -5 -27 -6 -165 -1 -191 3 -11 8
-40 12 -65 10 -61 51 -164 90 -225 88 -138 199 -227 350 -284 67 -25 63 -24
160 -47 69 -16 311 -23 395 -11 242 34 447 149 561 314 48 69 92 172 104 242
3 19 8 37 10 40 5 9 17 137 18 185 1 176 -65 354 -171 463 -62 64 -122 113
-138 113 -7 0 -14 3 -16 8 -4 10 -103 56 -163 77 -23 8 -109 31 -152 41 -42
10 -323 12 -358 3z m251 -420 c24 -8 44 -17 44 -21 0 -4 6 -8 14 -8 18 0 81
-75 96 -115 22 -58 30 -163 17 -244 -10 -67 -55 -166 -96 -207 -103 -107 -291
-101 -391 12 -46 53 -60 93 -67 193 -11 172 43 302 153 366 70 41 144 49 230
24z"/>
<path d="M12568 11225 c-2 -2 -16 -5 -33 -8 -68 -12 -102 -21 -143 -38 -23
-10 -43 -18 -45 -17 -5 3 -110 -53 -155 -83 -88 -59 -203 -187 -246 -274 -47
-95 -55 -113 -60 -140 -3 -11 -9 -42 -16 -69 -23 -101 -11 -253 29 -369 78
-225 292 -421 528 -482 54 -14 150 -27 208 -27 42 -1 186 11 194 16 3 2 22 7
41 10 61 9 155 43 216 77 70 39 174 141 200 194 44 93 11 205 -71 239 -27 12
-41 9 -135 -23 -125 -43 -219 -51 -304 -27 -30 9 -61 23 -70 31 -8 8 -18 15
-23 15 -12 0 -63 49 -94 90 -37 49 -74 127 -87 180 -13 57 -7 152 13 190 8 16
15 34 15 40 0 17 42 70 56 70 7 0 14 5 16 12 7 20 117 23 152 4 31 -17 73 -71
80 -103 1 -10 7 -27 11 -38 4 -11 13 -34 20 -51 25 -62 96 -125 158 -141 80
-20 196 17 262 82 109 110 108 306 -3 420 -86 88 -173 143 -284 179 -44 14
-66 19 -138 32 -29 5 -288 13 -292 9z"/>
<path d="M14219 11226 c-2 -2 -20 -6 -39 -9 -55 -8 -90 -17 -165 -45 -306
-113 -504 -396 -503 -721 1 -206 102 -425 256 -551 30 -25 60 -50 66 -55 33
-30 198 -98 266 -109 19 -3 49 -8 65 -11 39 -7 202 -7 240 0 87 16 145 29 185
42 66 22 171 73 194 94 11 11 23 19 27 19 4 0 30 21 58 46 83 76 111 160 78
234 -26 57 -53 80 -102 85 -11 1 -67 -24 -75 -34 -6 -7 -84 -45 -125 -61 -50
-20 -67 -22 -151 -26 -100 -4 -183 19 -231 63 -7 6 -24 20 -38 31 -26 21 -85
126 -85 153 0 42 16 44 394 45 390 2 405 4 446 56 46 59 58 185 28 293 -22 78
-84 181 -152 249 -64 65 -147 126 -172 126 -7 0 -14 4 -14 9 0 5 -21 16 -47
25 -62 22 -153 45 -153 38 0 -2 -6 0 -12 5 -12 9 -231 17 -239 9z m161 -286
c51 -27 79 -74 87 -146 4 -36 1 -44 -27 -67 -18 -16 -45 -28 -63 -28 -110 -5
-175 -4 -198 4 -28 9 -49 43 -49 81 0 44 69 156 96 156 8 0 14 4 14 9 0 14
111 7 140 -9z"/>
<path d="M15740 11208 c-30 -5 -62 -9 -70 -9 -59 -2 -303 -81 -356 -116 -11
-7 -24 -10 -27 -6 -4 3 -7 1 -7 -5 0 -7 -6 -12 -14 -12 -7 0 -33 -19 -56 -41
-41 -40 -42 -43 -38 -90 6 -58 22 -78 93 -118 83 -47 87 -62 80 -298 -10 -306
-12 -329 -39 -382 -16 -30 -38 -55 -109 -119 -21 -19 -38 -39 -38 -45 -6 -51
-5 -65 4 -92 37 -108 191 -145 582 -141 228 3 276 6 327 22 10 3 30 7 44 10
72 13 123 67 132 140 9 81 -29 124 -138 160 -77 25 -97 58 -106 169 -7 92 -8
277 -2 374 2 44 8 57 29 73 35 26 51 20 127 -51 45 -42 79 -63 116 -75 256
-81 489 135 441 409 -25 143 -145 247 -290 250 -127 3 -214 -41 -311 -159 -46
-56 -57 -64 -76 -57 -13 5 -26 22 -33 47 -16 53 -15 50 -15 87 0 17 -9 43 -20
57 -17 23 -26 25 -97 25 -43 1 -103 -3 -133 -7z"/>
<path d="M17259 11216 c-2 -2 -31 -6 -64 -10 -79 -8 -176 -23 -205 -31 -45
-13 -106 -44 -132 -67 -80 -72 -65 -171 35 -219 79 -37 144 -109 193 -214 23
-49 58 -125 78 -167 20 -43 51 -111 70 -150 19 -40 64 -138 101 -218 36 -80
73 -158 82 -175 52 -103 95 -216 99 -257 8 -103 -65 -179 -137 -142 -19 9 -30
26 -38 61 -40 156 -113 226 -235 225 -65 0 -84 -3 -103 -15 -7 -5 -13 -5 -13
-2 0 3 -6 1 -12 -4 -107 -86 -130 -127 -134 -238 -2 -82 20 -143 76 -206 40
-46 134 -99 215 -123 112 -32 300 -22 402 22 21 9 44 17 50 18 7 1 42 22 78
45 150 100 250 234 358 481 9 19 50 127 92 240 42 113 79 212 82 220 3 8 7 20
9 25 1 6 30 84 64 175 75 204 129 313 176 363 34 36 120 87 146 87 20 0 66 41
82 73 10 21 11 39 5 70 -15 66 -54 95 -169 124 -8 2 -70 5 -136 7 -104 2 -134
-1 -209 -23 -106 -30 -165 -76 -165 -130 0 -34 23 -96 44 -121 22 -25 43 -112
39 -164 -5 -70 -39 -141 -85 -181 -31 -26 -45 -32 -61 -26 -40 14 -158 212
-162 271 -2 41 14 101 37 133 27 37 29 104 4 141 -16 25 -74 67 -93 68 -4 0
-16 5 -27 10 -10 6 -33 12 -50 14 -41 6 -382 14 -387 10z"/>
<path d="M11035 9149 c-91 -19 -186 -58 -259 -108 -104 -72 -207 -200 -241
-301 -1 -3 -5 -12 -8 -20 -3 -8 -13 -46 -20 -85 -27 -132 -1 -281 71 -420 20
-38 41 -75 47 -81 5 -6 24 -27 42 -47 108 -123 305 -196 518 -192 193 4 357
73 482 202 48 50 63 107 43 167 -23 72 -78 83 -167 36 -166 -89 -316 -87 -428
5 -54 44 -91 118 -76 152 13 28 -19 25 341 28 189 1 305 6 322 13 68 28 94
183 50 300 -104 272 -397 416 -717 351z m171 -217 c28 -3 82 -58 92 -96 10
-38 -2 -86 -25 -104 -22 -16 -216 -13 -233 4 -26 26 -16 105 19 147 26 31 69
54 99 52 15 -1 36 -3 48 -3z"/>
<path d="M15865 9163 c-174 -30 -295 -116 -350 -249 -24 -58 -29 -83 -29 -159
0 -82 3 -96 32 -152 17 -34 48 -80 69 -101 50 -51 127 -112 142 -112 6 0 11
-4 11 -8 0 -7 62 -43 80 -47 20 -4 89 -47 107 -67 51 -55 21 -128 -53 -128
-57 0 -94 24 -194 126 -116 118 -145 131 -209 92 -53 -32 -44 -160 20 -293 44
-93 112 -158 154 -146 15 4 147 3 190 -3 84 -9 212 -19 255 -19 167 0 330 88
406 219 34 59 39 77 38 174 0 68 -5 95 -24 134 -46 95 -164 191 -345 279 -111
54 -155 89 -155 123 0 38 21 72 52 85 34 14 85 -5 134 -49 75 -69 142 -120
169 -129 56 -19 122 2 149 48 19 32 21 114 3 137 -5 6 -7 12 -3 12 4 0 -1 11
-10 24 -8 14 -15 28 -14 31 2 10 -56 99 -86 131 -47 49 -74 55 -169 35 -55
-12 -134 -11 -195 4 -30 7 -147 12 -175 8z"/>
<path d="M8515 9150 c-22 -5 -53 -11 -70 -14 -68 -13 -196 -50 -284 -83 -168
-63 -205 -135 -115 -219 65 -60 69 -77 69 -304 -1 -113 -4 -227 -7 -253 -10
-66 -39 -122 -93 -181 -49 -52 -51 -66 -16 -116 24 -33 117 -66 200 -70 160
-9 296 -1 371 19 41 12 81 23 87 24 27 7 71 47 77 71 4 16 -5 51 -26 103 l-32
78 -3 205 c-3 254 13 341 66 362 42 16 60 17 91 7 31 -11 67 -72 77 -131 8
-44 8 -209 0 -335 -6 -109 -15 -134 -71 -198 -44 -50 -51 -77 -31 -118 17 -35
60 -63 115 -72 171 -29 433 -25 513 8 19 9 37 14 39 12 2 -2 22 10 44 28 55
45 57 81 8 175 -42 80 -45 105 -44 332 1 264 7 288 88 315 71 25 133 -20 149
-107 3 -18 7 -108 9 -199 3 -198 -11 -287 -57 -362 -34 -55 -41 -105 -19 -132
18 -21 99 -59 160 -74 168 -42 324 -33 485 30 88 34 104 90 51 178 -19 31 -39
75 -45 98 -7 26 -11 153 -11 347 1 368 -4 395 -87 481 -105 110 -324 134 -486
54 -67 -33 -97 -53 -168 -114 -28 -24 -56 -42 -63 -39 -6 2 -26 28 -45 58 -36
56 -103 109 -161 127 -54 16 -179 18 -244 2 -104 -24 -183 -70 -258 -152 -51
-56 -66 -61 -92 -32 -12 13 -16 31 -13 63 4 40 -11 109 -27 125 -9 10 -89 11
-131 3z"/>
<path d="M12380 9139 c-233 -54 -451 -141 -486 -193 -27 -43 -3 -116 46 -136
14 -6 38 -31 53 -55 33 -51 33 -57 23 -335 -8 -209 -16 -243 -66 -290 -92 -86
-55 -179 80 -204 19 -3 46 -8 60 -11 57 -12 90 -15 185 -15 105 0 106 0 225
26 167 36 196 87 126 216 -19 34 -38 86 -42 113 -13 86 -7 343 11 430 2 11 4
25 4 32 2 33 78 81 121 77 8 -1 25 -2 37 -3 12 0 35 -13 52 -27 58 -49 81
-195 67 -426 -8 -135 -13 -153 -83 -257 -30 -44 -23 -87 18 -122 47 -41 116
-53 304 -53 224 0 306 12 364 51 64 44 80 107 38 153 -77 84 -88 124 -93 323
-5 255 -20 415 -45 493 -15 47 -70 121 -116 154 -107 79 -321 102 -433 47 -60
-29 -118 -77 -144 -118 -9 -14 -27 -32 -41 -39 -34 -18 -72 7 -73 47 0 71 -4
90 -20 111 -23 30 -77 33 -172 11z"/>
<path d="M14117 9154 c-1 -1 -33 -4 -72 -8 -38 -3 -81 -8 -95 -11 -14 -3 -45
-8 -70 -11 -176 -24 -250 -68 -250 -150 0 -25 8 -34 76 -82 76 -55 81 -76 88
-422 3 -113 7 -215 10 -226 2 -12 7 -39 10 -60 10 -61 55 -141 103 -184 93
-82 255 -115 403 -82 70 16 98 28 175 77 28 17 55 33 60 34 6 2 15 7 20 11 18
15 35 -4 53 -60 22 -69 40 -79 145 -74 181 7 291 29 410 80 67 29 127 85 127
118 0 23 -35 86 -48 86 -16 0 -71 56 -80 80 -4 14 -7 201 -6 415 2 435 1 443
-60 462 -34 10 -249 9 -296 -2 -14 -3 -42 -8 -62 -10 -21 -2 -59 -11 -85 -18
-27 -8 -52 -15 -58 -16 -73 -9 -145 -61 -145 -103 0 -22 30 -78 41 -78 17 0
71 -55 88 -89 16 -32 18 -62 16 -261 -1 -124 -5 -237 -8 -252 -21 -108 -153
-144 -224 -63 -18 21 -32 40 -31 44 1 3 -2 22 -7 41 -4 19 -8 202 -9 407 -1
340 -3 374 -18 390 -14 14 -37 18 -108 18 -50 1 -91 1 -93 -1z"/>
<path d="M17380 8688 c-30 -4 -82 -22 -116 -38 -120 -59 -184 -151 -190 -276
-3 -66 10 -142 27 -154 3 -3 9 -15 13 -28 4 -12 30 -45 58 -72 68 -67 137 -93
243 -92 99 1 119 5 175 31 80 38 129 95 122 141 -10 59 -42 73 -109 45 -76
-32 -166 -5 -216 65 -68 96 -29 222 66 218 16 -1 67 -58 52 -58 -3 0 4 -18 16
-40 25 -44 60 -61 111 -53 112 17 144 147 55 230 -33 30 -108 79 -117 76 -3
-1 -14 0 -25 2 -44 10 -113 11 -165 3z"/>
<path d="M18177 8694 c-1 -1 -27 -4 -57 -7 -194 -18 -332 -167 -331 -357 0
-140 84 -250 216 -285 51 -14 59 -15 110 -18 290 -19 517 239 408 464 -45 94
-155 182 -245 195 -36 6 -98 10 -101 8z m6 -172 c45 -49 84 -236 63 -300 -14
-43 -72 -49 -102 -11 -14 18 -42 91 -49 126 -3 16 -7 39 -10 53 -15 65 -13
100 7 125 23 30 67 33 91 7z"/>
<path d="M18835 8678 c-55 -11 -187 -57 -207 -72 -26 -19 -27 -65 -2 -91 36
-36 52 -191 30 -290 -9 -39 -36 -95 -46 -95 -16 0 -21 -53 -7 -68 45 -44 266
-49 346 -7 29 14 45 38 34 49 -4 3 -8 16 -9 28 -6 38 -9 52 -16 63 -5 9 -5
105 0 223 2 35 32 72 60 72 49 -1 67 -51 67 -185 -1 -68 -6 -91 -34 -153 -36
-83 -34 -93 27 -113 39 -13 192 -17 252 -6 102 17 118 40 83 121 -27 66 -34
145 -22 251 10 78 16 88 59 91 41 3 59 -26 66 -102 7 -81 4 -189 -6 -189 -1 0
-3 -7 -5 -15 -2 -8 -11 -32 -20 -53 -14 -35 -14 -41 -1 -61 33 -51 242 -69
323 -27 22 11 43 26 46 34 3 7 -6 36 -19 64 -21 47 -23 66 -24 223 -2 186 -11
228 -59 274 -14 14 -48 31 -74 38 -66 17 -162 -8 -223 -57 -23 -19 -47 -35
-53 -35 -6 0 -26 17 -45 38 -42 45 -78 60 -142 57 -86 -4 -130 -22 -197 -84
-36 -33 -61 -20 -65 34 -1 22 -5 41 -7 44 -9 8 -68 8 -110 -1z"/>
<path d="M1739 8459 c-106 -25 -179 -67 -264 -153 -47 -48 -110 -151 -118
-192 -2 -11 -8 -28 -13 -39 -10 -23 -12 -195 -2 -240 11 -55 52 -144 91 -197
41 -56 149 -148 173 -148 8 0 14 -4 14 -10 0 -5 9 -10 19 -10 11 0 22 -4 25
-9 5 -8 28 -14 101 -28 99 -19 239 3 336 53 93 48 201 170 239 272 29 76 31
85 34 172 6 159 -51 295 -173 407 -40 37 -153 104 -185 109 -6 1 -31 7 -56 13
-53 12 -169 13 -221 0z m199 -223 c44 -10 111 -56 148 -102 120 -146 68 -371
-105 -457 -37 -17 -63 -22 -131 -22 -75 0 -91 3 -135 28 -135 77 -197 243
-139 373 9 22 18 42 18 46 2 11 65 77 91 94 67 44 169 60 253 40z"/>
<path d="M4816 8455 c-192 -53 -351 -223 -383 -410 -44 -255 102 -507 342
-590 215 -75 449 -4 591 180 69 88 104 201 100 322 -4 109 -25 197 -60 243 -7
8 -18 28 -26 44 -22 43 -130 137 -194 170 -108 54 -260 71 -370 41z m258 -239
c63 -31 120 -90 149 -155 26 -58 30 -155 9 -202 -8 -19 -14 -38 -13 -42 3 -15
-114 -124 -154 -144 -27 -14 -64 -21 -112 -22 -62 -2 -81 2 -136 28 -112 53
-170 143 -171 265 -1 174 132 306 304 301 51 -2 83 -9 124 -29z"/>
<path d="M16831 8330 c-126 -19 -164 -206 -56 -278 60 -41 159 -29 206 24 43
50 47 143 8 193 -42 52 -89 71 -158 61z"/>
</g>
</svg>
